<svg width="13" height="10" viewBox="0 0 13 10" fill="none" xmlns="http://www.w3.org/2000/svg">
  <path
    d="M4.44445 7.33333L11 0.777769C11.2037 0.574065 11.463 0.472214 11.7778 0.472214C12.0926 0.472214 12.3519 0.574065 12.5556 0.777769C12.7593 0.981473 12.8611 1.24073 12.8611 1.55555C12.8611 1.87036 12.7593 2.12962 12.5556 2.33333L5.22223 9.66666C5.00001 9.88888 4.74075 9.99999 4.44445 9.99999C4.14815 9.99999 3.8889 9.88888 3.66667 9.66666L0.777784 6.77777C0.57408 6.57407 0.472229 6.31481 0.472229 5.99999C0.472229 5.68518 0.57408 5.42592 0.777784 5.22221C0.981488 5.01851 1.24075 4.91666 1.55556 4.91666C1.87038 4.91666 2.12964 5.01851 2.33334 5.22221L4.44445 7.33333Z"
    fill="#FFD717" />
</svg>
  