<svg width="131" height="46" viewBox="0 0 131 46" fill="none" xmlns="http://www.w3.org/2000/svg">
  <g clip-path="url(#clip0_95_207)">
    <path
      d="M65.5153 -0.684756V15.5244M54.589 14.361H76.4417M53.2012 -33.4418H47.738V-22.5154H53.2012M84.6144 -33.4418H79.1513V-22.5154H84.6144M77.7855 -27.9786H83.2486M131.062 -19.7838C131.062 16.4229 101.711 45.7742 65.5043 45.7742C29.2976 45.7742 -0.0537109 16.4229 -0.0537109 -19.7838C-0.0537109 -55.9905 29.2976 -85.342 65.5043 -85.342C101.711 -85.342 131.062 -55.9905 131.062 -19.7838ZM31.3485 -52.5629H99.6601V-0.662741H31.3485V-52.5629ZM39.4996 -44.3681H91.5308V-11.5891H39.4996V-44.3681ZM68.2359 -6.21061C68.2359 -4.70199 67.0129 -3.47902 65.5043 -3.47902C63.9957 -3.47902 62.7728 -4.70199 62.7728 -6.21061C62.7728 -7.71922 63.9957 -8.94219 65.5043 -8.94219C67.0129 -8.94219 68.2359 -7.71922 68.2359 -6.21061ZM57.2986 -33.4418V-22.5154H62.7617V-33.4418H57.2986ZM68.2249 -33.4418V-22.5154H73.6881V-33.4418H68.2249Z"
      stroke="#34485C" stroke-width="0.256086" />
  </g>
  <defs>
    <clipPath id="clip0_95_207">
      <rect width="130.486" height="130.486" fill="white" transform="translate(0 -85)" />
    </clipPath>
  </defs>
</svg>
  