<svg width="512" height="512" viewBox="0 0 512 512" fill="none" xmlns="http://www.w3.org/2000/svg">
  <g clip-path="url(#clip0_97_54)">
    <path
      d="M256 512.001C397.385 512.001 512 397.386 512 256.001C512 114.616 397.385 0 256 0C114.615 0 0 114.616 0 256.001C0 397.386 114.615 512.001 256 512.001Z"
      fill="#4BBFEB" />
    <path d="M389.376 128.001H122.624V330.667H389.376V128.001Z" fill="#E9EDED" />
    <path d="M357.632 160.001H154.453V288.001H357.632V160.001Z" fill="#FCD062" />
    <path
      d="M256 319.67C261.891 319.67 266.667 314.894 266.667 309.003C266.667 303.112 261.891 298.337 256 298.337C250.109 298.337 245.333 303.112 245.333 309.003C245.333 314.894 250.109 319.67 256 319.67Z"
      fill="#92A3B3" />
    <path d="M256.043 330.581V393.877M213.376 389.334H298.71" stroke="#92A3B3" />
    <path
      d="M207.957 202.667H186.624V245.334H207.957M330.624 202.667H309.29V245.334H330.624M303.957 224.001H325.29M223.957 202.667V245.334H245.29V202.667H223.957ZM266.624 202.667V245.334H287.957V202.667H266.624Z"
      stroke="#34485C" />
  </g>
  <defs>
    <clipPath id="clip0_97_54">
      <rect width="512" height="512" fill="white" />
    </clipPath>
  </defs>
</svg>
  