<svg width="132" height="132" viewBox="0 0 132 132" fill="none" xmlns="http://www.w3.org/2000/svg">
  <path
    d="M98.3373 44.2162V44.3443H98.4653V44.2162H98.3373ZM30.0475 44.2162H29.9195V44.3443H30.0475V44.2162ZM106.532 86.3073H106.66V86.1792H106.532V86.3073ZM103.2 86.3073L103.075 86.3354L103.097 86.4353H103.2V86.3073ZM101.492 82.1526L101.402 82.0621L101.33 82.1341L101.384 82.2204L101.492 82.1526ZM103.836 79.8061L103.927 79.8966L104.017 79.806L103.927 79.7155L103.836 79.8061ZM99.6238 75.594L99.7144 75.5035L99.6239 75.413L99.5334 75.5034L99.6238 75.594ZM97.272 77.9431L97.2039 78.0516L97.2903 78.1058L97.3624 78.0337L97.272 77.9431ZM93.1199 76.2279H92.9919V76.3301L93.0915 76.3527L93.1199 76.2279ZM93.1199 72.8981H93.248V72.77H93.1199V72.8981ZM87.1651 72.8981V72.77H87.037V72.8981H87.1651ZM87.1651 76.2332L87.1931 76.3582L87.2931 76.3357V76.2332H87.1651ZM83.0076 77.9378L82.9171 78.0284L82.989 78.1002L83.0753 78.0465L83.0076 77.9378ZM80.6612 75.594L80.7517 75.5034L80.6612 75.413L80.5707 75.5034L80.6612 75.594ZM76.4463 79.8061L76.3558 79.7155L76.2652 79.8061L76.3558 79.8966L76.4463 79.8061ZM78.7982 82.1579L78.9067 82.2259L78.9609 82.1395L78.8887 82.0673L78.7982 82.1579ZM77.0828 86.31V86.438H77.185L77.2076 86.3383L77.0828 86.31ZM73.753 86.31V86.1819H73.6249V86.31H73.753ZM73.753 92.2676H73.6249V92.3957H73.753V92.2676ZM77.0855 92.2676L77.2104 92.2395L77.1879 92.1396H77.0855V92.2676ZM78.7928 96.4224L78.8833 96.5129L78.9553 96.4409L78.9014 96.3546L78.7928 96.4224ZM76.4463 98.7715L76.3557 98.681L76.2652 98.7716L76.3558 98.8621L76.4463 98.7715ZM80.6612 102.984L80.5707 103.074L80.6613 103.165L80.7518 103.074L80.6612 102.984ZM83.0103 100.632L83.0784 100.523L82.9919 100.469L82.9198 100.541L83.0103 100.632ZM87.1623 102.347H87.2904V102.245L87.1907 102.222L87.1623 102.347ZM87.1623 105.68H87.0343V105.808H87.1623V105.68ZM93.1227 105.68V105.808H93.2507V105.68H93.1227ZM93.1227 102.342L93.0946 102.217L92.9946 102.239V102.342H93.1227ZM97.2774 100.637L97.368 100.547L97.296 100.475L97.2097 100.528L97.2774 100.637ZM99.6238 102.984L99.5333 103.074L99.6239 103.165L99.7144 103.074L99.6238 102.984ZM103.836 98.7688L103.927 98.8594L104.017 98.7688L103.927 98.6783L103.836 98.7688ZM101.487 96.4197L101.378 96.3517L101.324 96.4381L101.396 96.5103L101.487 96.4197ZM103.202 92.2676V92.1396H103.1L103.077 92.2393L103.202 92.2676ZM106.532 92.2676V92.3957H106.66V92.2676H106.532ZM68.2898 89.5714H68.4178V89.4434H68.2898V89.5714ZM65.9953 89.5714L65.8703 89.5995L65.8928 89.6994H65.9953V89.5714ZM64.8234 86.7171L64.7329 86.6266L64.6609 86.6985L64.7148 86.7849L64.8234 86.7171ZM66.435 85.1055L66.5256 85.1961L66.6161 85.1056L66.5256 85.0151L66.435 85.1055ZM63.5395 82.2072L63.6301 82.1167L63.5397 82.0262L63.4491 82.1166L63.5395 82.2072ZM61.9225 83.8214L61.8544 83.9299L61.9408 83.9841L62.0129 83.9121L61.9225 83.8214ZM59.0707 82.6414H58.9426V82.7435L59.0422 82.7662L59.0707 82.6414ZM59.0707 80.3523H59.1987V80.2242H59.0707V80.3523ZM54.9733 80.3523V80.2242H54.8452V80.3523H54.9733ZM54.9733 82.6471L55.0013 82.772L55.1013 82.7495V82.6471H54.9733ZM52.116 83.8188L52.0255 83.9093L52.0974 83.9813L52.1838 83.9274L52.116 83.8188ZM50.5044 82.2072L50.5949 82.1167L50.5044 82.0262L50.4138 82.1167L50.5044 82.2072ZM47.6089 85.1025L47.5184 85.012L47.4279 85.1025L47.5183 85.193L47.6089 85.1025ZM49.2233 86.7198L49.3317 86.7878L49.3859 86.7015L49.3139 86.6293L49.2233 86.7198ZM48.0432 89.5714V89.6994H48.1454L48.1681 89.5999L48.0432 89.5714ZM45.7542 89.5714V89.4434H45.6261V89.5714H45.7542ZM45.7542 93.6688H45.6261V93.7968H45.7542V93.6688ZM48.0487 93.6688L48.1736 93.6407L48.1512 93.5407H48.0487V93.6688ZM49.2205 96.5261L49.3111 96.6166L49.383 96.5447L49.3292 96.4583L49.2205 96.5261ZM47.6089 98.138L47.5184 98.0474L47.4279 98.1379L47.5183 98.2285L47.6089 98.138ZM50.5044 101.036L50.4138 101.126L50.5043 101.217L50.5949 101.126L50.5044 101.036ZM52.1215 99.4191L52.1896 99.3107L52.1032 99.2563L52.0309 99.3285L52.1215 99.4191ZM54.9733 100.602H55.1013V100.5L55.0018 100.477L54.9733 100.602ZM54.9733 102.888H54.8452V103.016H54.9733V102.888ZM59.0707 102.888V103.016H59.1987V102.888H59.0707ZM59.0707 100.596L59.0425 100.471L58.9426 100.494V100.596H59.0707ZM61.9279 99.4217L62.0185 99.3313L61.9465 99.2591L61.8601 99.3131L61.9279 99.4217ZM63.5395 101.036L63.4489 101.126L63.5395 101.217L63.6301 101.126L63.5395 101.036ZM66.435 98.1406L66.5256 98.2312L66.616 98.1407L66.5257 98.0502L66.435 98.1406ZM64.8207 96.5234L64.7122 96.4554L64.658 96.5417L64.73 96.6139L64.8207 96.5234ZM66.0007 93.6688V93.5407H65.8985L65.8759 93.6404L66.0007 93.6688ZM68.2898 93.6688V93.7968H68.4178V93.6688H68.2898ZM60.1524 91.6201L60.2804 91.6205L60.2804 91.6195L60.1524 91.6201ZM57.022 88.4927L57.0224 88.3646L57.0215 88.3647L57.022 88.4927ZM53.8916 91.6201L53.7635 91.6195V91.6201H53.8916ZM57.022 94.7508V94.8789L57.0224 94.8789L57.022 94.7508ZM57.2658 72.8136C57.2283 72.8735 57.2465 72.9525 57.3065 72.99C57.3665 73.0275 57.4454 73.0092 57.4829 72.9493L57.2658 72.8136ZM71.119 51.1294C71.1565 51.0694 71.1383 50.9904 71.0783 50.9529C71.0183 50.9155 70.9393 50.9337 70.9019 50.9937L71.119 51.1294ZM43.8097 61.8945C43.7597 61.8445 43.6786 61.8445 43.6286 61.8945C43.5786 61.9445 43.5786 62.0256 43.6286 62.0756L43.8097 61.8945ZM51.796 70.2434C51.846 70.2934 51.9271 70.2934 51.9771 70.2434C52.0271 70.1934 52.0271 70.1123 51.9771 70.0623L51.796 70.2434ZM43.6286 61.8675C43.5786 61.9175 43.5786 61.9986 43.6286 62.0486C43.6786 62.0986 43.7597 62.0986 43.8097 62.0486L43.6286 61.8675ZM51.9771 53.881C52.0271 53.831 52.0271 53.7499 51.9771 53.6999C51.9271 53.6499 51.846 53.6499 51.796 53.6999L51.9771 53.881ZM84.7562 62.0756C84.8062 62.0256 84.8062 61.9445 84.7562 61.8945C84.7062 61.8445 84.6251 61.8445 84.5751 61.8945L84.7562 62.0756ZM76.4077 70.0623C76.3577 70.1123 76.3577 70.1934 76.4077 70.2434C76.4577 70.2934 76.5388 70.2934 76.5888 70.2434L76.4077 70.0623ZM84.5751 62.0486C84.6251 62.0986 84.7062 62.0986 84.7562 62.0486C84.8062 61.9986 84.8062 61.9175 84.7562 61.8675L84.5751 62.0486ZM76.5888 53.6999C76.5388 53.6499 76.4577 53.6499 76.4077 53.6999C76.3577 53.7499 76.3577 53.831 76.4077 53.881L76.5888 53.6999ZM130.988 66.0691C130.988 102.205 101.694 131.499 65.5582 131.499V131.755C101.836 131.755 131.244 102.347 131.244 66.0691H130.988ZM65.5582 131.499C29.4221 131.499 0.128043 102.205 0.128043 66.0691H-0.128043C-0.128043 102.347 29.2807 131.755 65.5582 131.755V131.499ZM0.128043 66.0691C0.128043 29.933 29.4221 0.638786 65.5582 0.638786V0.382699C29.2807 0.382699 -0.128043 29.7916 -0.128043 66.0691H0.128043ZM65.5582 0.638786C101.694 0.638786 130.988 29.933 130.988 66.0691H131.244C131.244 29.7916 101.836 0.382699 65.5582 0.382699V0.638786ZM32.7791 30.6863H95.6057V30.4302H32.7791V30.6863ZM95.6057 30.6863C97.0483 30.6863 98.2092 31.8473 98.2092 33.2898H98.4653C98.4653 31.7058 97.1897 30.4302 95.6057 30.4302V30.6863ZM98.2092 33.2898V90.6534H98.4653V33.2898H98.2092ZM98.2092 90.6534C98.2092 92.096 97.0483 93.257 95.6057 93.257V93.5131C97.1897 93.5131 98.4653 92.2375 98.4653 90.6534H98.2092ZM95.6057 93.257H32.7791V93.5131H95.6057V93.257ZM32.7791 93.257C31.3365 93.257 30.1755 92.096 30.1755 90.6534H29.9195C29.9195 92.2375 31.1951 93.5131 32.7791 93.5131V93.257ZM30.1755 90.6534V33.2898H29.9195V90.6534H30.1755ZM30.1755 33.2898C30.1755 31.8473 31.3365 30.6863 32.7791 30.6863V30.4302C31.1951 30.4302 29.9195 31.7058 29.9195 33.2898H30.1755ZM98.2092 33.2898V44.2162H98.4653V33.2898H98.2092ZM98.3373 44.0882H30.0475V44.3443H98.3373V44.0882ZM30.1755 44.2162V33.2898H29.9195V44.2162H30.1755ZM92.7461 37.3872C92.7461 37.7155 92.6157 38.0304 92.3835 38.2625L92.5646 38.4436C92.8448 38.1634 93.0021 37.7834 93.0021 37.3872H92.7461ZM92.3835 38.2625C92.1514 38.4946 91.8366 38.625 91.5083 38.625V38.8811C91.9045 38.8811 92.2845 38.7238 92.5646 38.4436L92.3835 38.2625ZM91.5083 38.625C91.18 38.625 90.8652 38.4946 90.6331 38.2625L90.452 38.4436C90.7322 38.7238 91.1121 38.8811 91.5083 38.8811V38.625ZM90.6331 38.2625C90.401 38.0304 90.2706 37.7155 90.2706 37.3872H90.0145C90.0145 37.7834 90.1719 38.1634 90.452 38.4436L90.6331 38.2625ZM90.2706 37.3872C90.2706 37.0589 90.401 36.7441 90.6331 36.5119L90.452 36.3309C90.1719 36.611 90.0145 36.991 90.0145 37.3872H90.2706ZM90.6331 36.5119C90.8652 36.2798 91.18 36.1495 91.5083 36.1495V35.8934C91.1121 35.8934 90.7322 36.0507 90.452 36.3309L90.6331 36.5119ZM91.5083 36.1495C91.8366 36.1495 92.1514 36.2798 92.3835 36.5119L92.5646 36.3309C92.2845 36.0507 91.9045 35.8934 91.5083 35.8934V36.1495ZM92.3835 36.5119C92.6157 36.7441 92.7461 37.0589 92.7461 37.3872H93.0021C93.0021 36.991 92.8448 36.611 92.5646 36.3309L92.3835 36.5119ZM87.2829 37.3872C87.2829 37.7155 87.1525 38.0304 86.9203 38.2625L87.1014 38.4436C87.3816 38.1634 87.539 37.7834 87.539 37.3872H87.2829ZM86.9203 38.2625C86.6882 38.4946 86.3734 38.625 86.0451 38.625V38.8811C86.4413 38.8811 86.8213 38.7238 87.1014 38.4436L86.9203 38.2625ZM86.0451 38.625C85.7168 38.625 85.402 38.4946 85.1699 38.2625L84.9888 38.4436C85.269 38.7238 85.6489 38.8811 86.0451 38.8811V38.625ZM85.1699 38.2625C84.9378 38.0304 84.8074 37.7155 84.8074 37.3872H84.5513C84.5513 37.7834 84.7087 38.1634 84.9888 38.4436L85.1699 38.2625ZM84.8074 37.3872C84.8074 37.0589 84.9378 36.7441 85.1699 36.5119L84.9888 36.3309C84.7087 36.611 84.5513 36.991 84.5513 37.3872H84.8074ZM85.1699 36.5119C85.402 36.2798 85.7168 36.1495 86.0451 36.1495V35.8934C85.6489 35.8934 85.269 36.0507 84.9888 36.3309L85.1699 36.5119ZM86.0451 36.1495C86.3734 36.1495 86.6882 36.2798 86.9203 36.5119L87.1014 36.3309C86.8213 36.0507 86.4413 35.8934 86.0451 35.8934V36.1495ZM86.9203 36.5119C87.1525 36.7441 87.2829 37.0589 87.2829 37.3872H87.539C87.539 36.991 87.3816 36.611 87.1014 36.3309L86.9203 36.5119ZM81.8197 37.3872C81.8197 37.7155 81.6893 38.0304 81.4572 38.2625L81.6383 38.4436C81.9184 38.1634 82.0758 37.7834 82.0758 37.3872H81.8197ZM81.4572 38.2625C81.2251 38.4946 80.9102 38.625 80.5819 38.625V38.8811C80.9781 38.8811 81.3581 38.7238 81.6383 38.4436L81.4572 38.2625ZM80.5819 38.625C80.2537 38.625 79.9388 38.4946 79.7067 38.2625L79.5256 38.4436C79.8058 38.7238 80.1858 38.8811 80.5819 38.8811V38.625ZM79.7067 38.2625C79.4746 38.0304 79.3442 37.7155 79.3442 37.3872H79.0881C79.0881 37.7834 79.2455 38.1634 79.5256 38.4436L79.7067 38.2625ZM79.3442 37.3872C79.3442 37.0589 79.4746 36.7441 79.7067 36.5119L79.5256 36.3309C79.2455 36.611 79.0881 36.991 79.0881 37.3872H79.3442ZM79.7067 36.5119C79.9388 36.2798 80.2537 36.1495 80.5819 36.1495V35.8934C80.1858 35.8934 79.8058 36.0507 79.5256 36.3309L79.7067 36.5119ZM80.5819 36.1495C80.9102 36.1495 81.2251 36.2798 81.4572 36.5119L81.6383 36.3309C81.3581 36.0507 80.9781 35.8934 80.5819 35.8934V36.1495ZM81.4572 36.5119C81.6893 36.7441 81.8197 37.0589 81.8197 37.3872H82.0758C82.0758 36.991 81.9184 36.611 81.6383 36.3309L81.4572 36.5119ZM106.532 86.1792H103.2V86.4353H106.532V86.1792ZM103.324 86.2791C102.99 84.7941 102.407 83.3761 101.601 82.0847L101.384 82.2204C102.175 83.4873 102.746 84.8784 103.075 86.3354L103.324 86.2791ZM101.583 82.243L103.927 79.8966L103.745 79.7156L101.402 82.0621L101.583 82.243ZM103.927 79.7155L99.7144 75.5035L99.5333 75.6845L103.745 79.8966L103.927 79.7155ZM99.5334 75.5034L97.1815 77.8525L97.3624 78.0337L99.7143 75.6846L99.5334 75.5034ZM97.34 77.8347C96.0501 77.0258 94.633 76.4405 93.1483 76.103L93.0915 76.3527C94.5481 76.6839 95.9384 77.2581 97.2039 78.0516L97.34 77.8347ZM93.248 76.2279V72.8981H92.9919V76.2279H93.248ZM93.1199 72.77H87.1651V73.0261H93.1199V72.77ZM87.037 72.8981V76.2332H87.2931V72.8981H87.037ZM87.137 76.1083C85.6512 76.4418 84.2322 77.0236 82.9399 77.8291L83.0753 78.0465C84.3432 77.2562 85.7354 76.6853 87.1931 76.3582L87.137 76.1083ZM83.0981 77.8472L80.7517 75.5034L80.5707 75.6846L82.9171 78.0284L83.0981 77.8472ZM80.5707 75.5034L76.3558 79.7155L76.5368 79.8967L80.7517 75.6846L80.5707 75.5034ZM76.3558 79.8966L78.7077 82.2484L78.8887 82.0673L76.5368 79.7155L76.3558 79.8966ZM78.6897 82.0899C77.8809 83.3798 77.2954 84.7969 76.9579 86.2816L77.2076 86.3383C77.5387 84.8818 78.1132 83.4914 78.9067 82.2259L78.6897 82.0899ZM77.0828 86.1819H73.753V86.438H77.0828V86.1819ZM73.6249 86.31V92.2676H73.881V86.31H73.6249ZM73.753 92.3957H77.0855V92.1396H73.753V92.3957ZM76.9606 92.2958C77.2952 93.7809 77.8779 95.1989 78.6841 96.4902L78.9014 96.3546C78.1104 95.0877 77.5387 93.6965 77.2104 92.2395L76.9606 92.2958ZM78.7022 96.3319L76.3557 98.681L76.5369 98.862L78.8833 96.5129L78.7022 96.3319ZM76.3558 98.8621L80.5707 103.074L80.7517 102.893L76.5368 98.6809L76.3558 98.8621ZM80.7518 103.074L83.1009 100.722L82.9198 100.541L80.5706 102.893L80.7518 103.074ZM82.9423 100.74C84.2322 101.549 85.6493 102.134 87.134 102.472L87.1907 102.222C85.7341 101.891 84.3439 101.317 83.0784 100.523L82.9423 100.74ZM87.0343 102.347V105.68H87.2904V102.347H87.0343ZM87.1623 105.808H93.1227V105.552H87.1623V105.808ZM93.2507 105.68V102.342H92.9946V105.68H93.2507ZM93.1508 102.467C94.6357 102.133 96.0537 101.551 97.3452 100.746L97.2097 100.528C95.9426 101.319 94.5514 101.889 93.0946 102.217L93.1508 102.467ZM97.1869 100.728L99.5333 103.074L99.7144 102.893L97.368 100.547L97.1869 100.728ZM99.7144 103.074L103.927 98.8594L103.745 98.6783L99.5333 102.893L99.7144 103.074ZM103.927 98.6783L101.577 96.3292L101.396 96.5103L103.745 98.8594L103.927 98.6783ZM101.595 96.4877C102.404 95.1978 102.99 93.7807 103.327 92.296L103.077 92.2393C102.746 93.6958 102.172 95.0862 101.378 96.3517L101.595 96.4877ZM103.202 92.3957H106.532V92.1396H103.202V92.3957ZM106.66 92.2676V86.3073H106.404V92.2676H106.66ZM95.7337 89.2876C95.7337 86.2149 93.218 83.6964 90.1425 83.6964V83.9525C93.0765 83.9525 95.4776 86.3563 95.4776 89.2876H95.7337ZM90.1425 83.6964C87.0698 83.6964 84.5513 86.2149 84.5513 89.2876H84.8074C84.8074 86.3563 87.2112 83.9525 90.1425 83.9525V83.6964ZM84.5513 89.2876C84.5513 92.3631 87.0698 94.8789 90.1425 94.8789V94.6228C87.2112 94.6228 84.8074 92.2216 84.8074 89.2876H84.5513ZM90.1425 94.8789C93.218 94.8789 95.7337 92.3631 95.7337 89.2876H95.4776C95.4776 92.2217 93.0765 94.6228 90.1425 94.6228V94.8789ZM68.2898 89.4434H65.9953V89.6994H68.2898V89.4434ZM66.1202 89.5433C65.8895 88.5187 65.4879 87.5404 64.932 86.6493L64.7148 86.7849C65.2554 87.6516 65.646 88.603 65.8703 89.5995L66.1202 89.5433ZM64.9139 86.8076L66.5256 85.1961L66.3445 85.015L64.7329 86.6266L64.9139 86.8076ZM66.5256 85.0151L63.6301 82.1167L63.449 82.2977L66.3444 85.196L66.5256 85.0151ZM63.4491 82.1166L61.832 83.7308L62.0129 83.9121L63.63 82.2979L63.4491 82.1166ZM61.9905 83.713C61.1008 83.1545 60.1233 82.7501 59.0991 82.5165L59.0422 82.7662C60.0383 82.9933 60.989 83.3867 61.8544 83.9299L61.9905 83.713ZM59.1987 82.6414V80.3523H58.9426V82.6414H59.1987ZM59.0707 80.2242H54.9733V80.4803H59.0707V80.2242ZM54.8452 80.3523V82.6471H55.1013V80.3523H54.8452ZM54.9452 82.5221C53.9196 82.7525 52.9402 83.154 52.0483 83.7101L52.1838 83.9274C53.0513 83.3866 54.0038 82.996 55.0013 82.772L54.9452 82.5221ZM52.2066 83.7282L50.5949 82.1167L50.4138 82.2978L52.0255 83.9093L52.2066 83.7282ZM50.4138 82.1167L47.5184 85.012L47.6994 85.1931L50.5949 82.2978L50.4138 82.1167ZM47.5183 85.193L49.1327 86.8102L49.3139 86.6293L47.6995 85.0121L47.5183 85.193ZM49.1148 86.6517C48.5564 87.5414 48.1519 88.5187 47.9184 89.5429L48.1681 89.5999C48.3952 88.6037 48.7886 87.6532 49.3317 86.7878L49.1148 86.6517ZM48.0432 89.4434H45.7542V89.6994H48.0432V89.4434ZM45.6261 89.5714V93.6688H45.8822V89.5714H45.6261ZM45.7542 93.7968H48.0487V93.5407H45.7542V93.7968ZM47.9237 93.6968C48.1541 94.7224 48.5558 95.7019 49.1119 96.5938L49.3292 96.4583C48.7883 95.5908 48.3976 94.6382 48.1736 93.6407L47.9237 93.6968ZM49.13 96.4356L47.5184 98.0474L47.6995 98.2285L49.3111 96.6166L49.13 96.4356ZM47.5183 98.2285L50.4138 101.126L50.595 100.945L47.6995 98.0475L47.5183 98.2285ZM50.5949 101.126L52.212 99.5096L52.0309 99.3285L50.4139 100.945L50.5949 101.126ZM52.0533 99.5275C52.9429 100.087 53.9204 100.492 54.9447 100.727L55.0018 100.477C54.0055 100.249 53.0548 99.8548 52.1896 99.3107L52.0533 99.5275ZM54.8452 100.602V102.888H55.1013V100.602H54.8452ZM54.9733 103.016H59.0707V102.76H54.9733V103.016ZM59.1987 102.888V100.596H58.9426V102.888H59.1987ZM59.0988 100.721C60.1246 100.49 61.104 100.087 61.9958 99.5303L61.8601 99.3131C60.9927 99.8549 60.0402 100.246 59.0425 100.471L59.0988 100.721ZM61.8373 99.5122L63.4489 101.126L63.6302 100.945L62.0185 99.3313L61.8373 99.5122ZM63.6301 101.126L66.5256 98.2312L66.3445 98.0501L63.449 100.945L63.6301 101.126ZM66.5257 98.0502L64.9113 96.433L64.73 96.6139L66.3444 98.2311L66.5257 98.0502ZM64.9291 96.5915C65.4879 95.7009 65.8924 94.7223 66.1256 93.6972L65.8759 93.6404C65.649 94.6374 65.2556 95.5892 64.7122 96.4554L64.9291 96.5915ZM66.0007 93.7968H68.2898V93.5407H66.0007V93.7968ZM68.4178 93.6688V89.5714H68.1617V93.6688H68.4178ZM60.2804 91.6195C60.2767 90.7569 59.9321 89.9308 59.3218 89.3211L59.1408 89.5023C59.7033 90.0642 60.0209 90.8256 60.0243 91.6206L60.2804 91.6195ZM59.3218 89.3211C58.7116 88.7114 57.8851 88.3676 57.0224 88.3647L57.0215 88.6207C57.8166 88.6235 58.5784 88.9403 59.1408 89.5023L59.3218 89.3211ZM57.0215 88.3647C56.1589 88.3676 55.3324 88.7114 54.7221 89.3211L54.9031 89.5023C55.4655 88.9403 56.2273 88.6235 57.0224 88.6207L57.0215 88.3647ZM54.7221 89.3211C54.1118 89.9308 53.7673 90.7569 53.7635 91.6195L54.0196 91.6206C54.0231 90.8256 54.3406 90.0642 54.9031 89.5023L54.7221 89.3211ZM53.7635 91.6201C53.7635 93.4117 55.2303 94.8789 57.022 94.8789V94.6228C55.3718 94.6228 54.0196 93.2703 54.0196 91.6201H53.7635ZM57.0224 94.8789C57.8856 94.8759 58.7125 94.5314 59.3228 93.921L59.1418 93.74C58.5792 94.3025 57.817 94.62 57.0215 94.6228L57.0224 94.8789ZM59.3228 93.921C59.9332 93.3107 60.2774 92.4837 60.2804 91.6205L60.0243 91.6196C60.0216 92.4152 59.7043 93.1774 59.1418 93.74L59.3228 93.921ZM57.4829 72.9493L71.119 51.1294L70.9019 50.9937L57.2658 72.8136L57.4829 72.9493ZM43.6286 62.0756L51.796 70.2434L51.9771 70.0623L43.8097 61.8945L43.6286 62.0756ZM43.8097 62.0486L51.9771 53.881L51.796 53.6999L43.6286 61.8675L43.8097 62.0486ZM84.5751 61.8945L76.4077 70.0623L76.5888 70.2434L84.7562 62.0756L84.5751 61.8945ZM84.7562 61.8675L76.5888 53.6999L76.4077 53.881L84.5751 62.0486L84.7562 61.8675Z"
    fill="#2DBCA4" />
</svg>
  