<svg width="512" height="512" viewBox="0 0 512 512" fill="none" xmlns="http://www.w3.org/2000/svg">
  <g clip-path="url(#clip0_97_42)">
    <path
      d="M256 512.001C397.385 512.001 512 397.386 512 256.001C512 114.616 397.385 0 256 0C114.615 0 0 114.616 0 256.001C0 397.386 114.615 512.001 256 512.001Z"
      fill="#239FDB" />
    <path
      d="M128 117.333H373.333C379.243 117.333 384 122.091 384 128V352.001C384 357.91 379.243 362.667 373.333 362.667H128C122.091 362.667 117.333 357.91 117.333 352.001V128C117.333 122.091 122.091 117.333 128 117.333Z"
      fill="#F0F4F7" />
    <path
      d="M128 117.333H373.333C379.243 117.333 384 122.091 384 128V170.667H117.333V128C117.333 122.091 122.091 117.333 128 117.333Z"
      fill="#0C5286" />
    <path
      d="M362.667 144C362.667 145.414 362.105 146.771 361.105 147.771C360.104 148.772 358.748 149.333 357.333 149.333C355.919 149.333 354.562 148.772 353.562 147.771C352.562 146.771 352 145.414 352 144C352 142.586 352.562 141.229 353.562 140.229C354.562 139.228 355.919 138.667 357.333 138.667C358.748 138.667 360.104 139.228 361.105 140.229C362.105 141.229 362.667 142.586 362.667 144Z"
      fill="#EE7581" />
    <path
      d="M341.333 144C341.333 145.414 340.771 146.771 339.771 147.771C338.771 148.772 337.415 149.333 336 149.333C334.586 149.333 333.229 148.772 332.229 147.771C331.229 146.771 330.667 145.414 330.667 144C330.667 142.586 331.229 141.229 332.229 140.229C333.229 139.228 334.586 138.667 336 138.667C337.415 138.667 338.771 139.228 339.771 140.229C340.771 141.229 341.333 142.586 341.333 144ZM320 144C320 145.414 319.438 146.771 318.438 147.771C317.438 148.772 316.081 149.333 314.667 149.333C313.252 149.333 311.896 148.772 310.895 147.771C309.895 146.771 309.333 145.414 309.333 144C309.333 142.586 309.895 141.229 310.895 140.229C311.896 139.228 313.252 138.667 314.667 138.667C316.081 138.667 317.438 139.228 318.438 140.229C319.438 141.229 320 142.586 320 144Z"
      fill="#8FB6D7" />
    <path
      d="M416 335.029H402.987C401.692 329.285 399.438 323.8 396.32 318.805L405.472 309.643L389.024 293.195L379.84 302.368C374.851 299.239 369.369 296.975 363.627 295.67V282.667H340.373V295.691C334.626 296.981 329.137 299.231 324.139 302.347L314.976 293.195L298.517 309.643L307.701 318.826C304.573 323.816 302.308 329.297 301.003 335.04H288V358.304H301.013C302.308 364.048 304.562 369.533 307.68 374.528L298.517 383.701L314.976 400.149L324.149 390.966C329.139 394.094 334.62 396.358 340.363 397.663V410.678H363.637V397.643C369.381 396.352 374.866 394.101 379.861 390.986L389.024 400.149L405.472 383.691L396.299 374.518C399.427 369.528 401.692 364.047 402.997 358.304H416V335.029Z"
      fill="#F9B536" />
    <path
      d="M373.333 346.667C373.333 334.945 363.733 325.334 352 325.334C340.277 325.334 330.667 334.945 330.667 346.667C330.667 358.401 340.277 368.001 352 368.001C363.733 368.001 373.333 358.401 373.333 346.667Z"
      fill="#F0F4F7" stroke="#0C5286" stroke-linecap="round" stroke-linejoin="round" />
    <path
      d="M266.667 347.775H257.707C256.818 343.829 255.271 340.062 253.131 336.63L259.424 330.337L248.117 319.019L241.803 325.322C238.376 323.171 234.611 321.614 230.667 320.714V311.775H214.667V320.736C210.717 321.623 206.945 323.17 203.509 325.312L197.216 319.019L185.909 330.325L192.213 336.64C190.063 340.067 188.505 343.831 187.605 347.775H178.667V363.775H187.627C188.514 367.725 190.061 371.498 192.203 374.933L185.909 381.227L197.216 392.544L203.531 386.23C206.957 388.384 210.721 389.946 214.667 390.848V399.775H230.667V390.826C234.617 389.936 238.389 388.386 241.824 386.24L248.117 392.544L259.424 381.238L253.12 374.923C255.272 371.493 256.83 367.724 257.728 363.775H266.667V347.775Z"
      fill="#F9B536" />
    <path
      d="M234.891 355.775C234.877 352.539 233.584 349.439 231.294 347.152C229.004 344.864 225.903 343.574 222.667 343.563C219.43 343.574 216.329 344.864 214.039 347.152C211.75 349.439 210.457 352.539 210.443 355.775C210.443 362.495 215.947 368.001 222.667 368.001C225.905 367.989 229.008 366.697 231.298 364.407C233.588 362.117 234.879 359.014 234.891 355.775Z"
      fill="#F0F4F7" stroke="#0C5286" stroke-linecap="round" stroke-linejoin="round" />
    <path
      d="M224.043 282.602L277.291 197.397M170.72 240.053L202.613 271.947M170.72 239.947L202.613 208.053M330.613 240.053L298.72 271.947M330.613 239.947L298.72 208.053"
      stroke="#2DBCA4" stroke-linecap="round" stroke-linejoin="round" />
  </g>
  <defs>
    <clipPath id="clip0_97_42">
      <rect width="512" height="512" fill="white" />
    </clipPath>
  </defs>
</svg>
  