<svg width="343" height="440" viewBox="0 0 343 440" fill="none" xmlns="http://www.w3.org/2000/svg">
  <rect width="343" height="440" rx="16" fill="white" />
  <path
    d="M47.4178 180.52H42.5538L41.6578 183H40.1217L44.1538 171.912H45.8338L49.8498 183H48.3138L47.4178 180.52ZM47.0018 179.336L44.9858 173.704L42.9698 179.336H47.0018ZM55.879 174.072C56.9457 174.072 57.8097 174.397 58.471 175.048C59.1323 175.688 59.463 176.616 59.463 177.832V183H58.023V178.04C58.023 177.165 57.8043 176.499 57.367 176.04C56.9297 175.571 56.3323 175.336 55.575 175.336C54.807 175.336 54.1937 175.576 53.735 176.056C53.287 176.536 53.063 177.235 53.063 178.152V183H51.607V174.232H53.063V175.48C53.351 175.032 53.7403 174.685 54.231 174.44C54.7323 174.195 55.2817 174.072 55.879 174.072ZM66.859 172.808C66.5817 172.808 66.347 172.712 66.155 172.52C65.963 172.328 65.867 172.093 65.867 171.816C65.867 171.539 65.963 171.304 66.155 171.112C66.347 170.92 66.5817 170.824 66.859 170.824C67.1257 170.824 67.3497 170.92 67.531 171.112C67.723 171.304 67.819 171.539 67.819 171.816C67.819 172.093 67.723 172.328 67.531 172.52C67.3497 172.712 67.1257 172.808 66.859 172.808ZM67.563 174.232V183H66.107V174.232H67.563ZM74.3165 174.072C75.3832 174.072 76.2472 174.397 76.9085 175.048C77.5698 175.688 77.9005 176.616 77.9005 177.832V183H76.4605V178.04C76.4605 177.165 76.2418 176.499 75.8045 176.04C75.3672 175.571 74.7698 175.336 74.0125 175.336C73.2445 175.336 72.6312 175.576 72.1725 176.056C71.7245 176.536 71.5005 177.235 71.5005 178.152V183H70.0445V174.232H71.5005V175.48C71.7885 175.032 72.1778 174.685 72.6685 174.44C73.1698 174.195 73.7192 174.072 74.3165 174.072ZM83.5429 181.656L86.2629 174.232H87.8149L84.3749 183H82.6789L79.2389 174.232H80.8069L83.5429 181.656ZM89.9996 172.808C89.7223 172.808 89.4876 172.712 89.2956 172.52C89.1036 172.328 89.0076 172.093 89.0076 171.816C89.0076 171.539 89.1036 171.304 89.2956 171.112C89.4876 170.92 89.7223 170.824 89.9996 170.824C90.2663 170.824 90.4903 170.92 90.6716 171.112C90.8636 171.304 90.9596 171.539 90.9596 171.816C90.9596 172.093 90.8636 172.328 90.6716 172.52C90.4903 172.712 90.2663 172.808 89.9996 172.808ZM90.7036 174.232V183H89.2476V174.232H90.7036ZM94.9611 175.432V180.6C94.9611 181.027 95.0518 181.331 95.2331 181.512C95.4145 181.683 95.7291 181.768 96.1771 181.768H97.2491V183H95.9371C95.1265 183 94.5185 182.813 94.1131 182.44C93.7078 182.067 93.5051 181.453 93.5051 180.6V175.432H92.3691V174.232H93.5051V172.024H94.9611V174.232H97.2491V175.432H94.9611ZM98.4693 178.584C98.4693 177.688 98.6506 176.904 99.0133 176.232C99.3759 175.549 99.8719 175.021 100.501 174.648C101.141 174.275 101.851 174.088 102.629 174.088C103.397 174.088 104.064 174.253 104.629 174.584C105.195 174.915 105.616 175.331 105.893 175.832V174.232H107.365V183H105.893V181.368C105.605 181.88 105.173 182.307 104.597 182.648C104.032 182.979 103.371 183.144 102.613 183.144C101.835 183.144 101.131 182.952 100.501 182.568C99.8719 182.184 99.3759 181.645 99.0133 180.952C98.6506 180.259 98.4693 179.469 98.4693 178.584ZM105.893 178.6C105.893 177.939 105.76 177.363 105.493 176.872C105.227 176.381 104.864 176.008 104.405 175.752C103.957 175.485 103.461 175.352 102.917 175.352C102.373 175.352 101.877 175.48 101.429 175.736C100.981 175.992 100.624 176.365 100.357 176.856C100.091 177.347 99.9573 177.923 99.9573 178.584C99.9573 179.256 100.091 179.843 100.357 180.344C100.624 180.835 100.981 181.213 101.429 181.48C101.877 181.736 102.373 181.864 102.917 181.864C103.461 181.864 103.957 181.736 104.405 181.48C104.864 181.213 105.227 180.835 105.493 180.344C105.76 179.843 105.893 179.261 105.893 178.6ZM111.602 175.432V180.6C111.602 181.027 111.692 181.331 111.874 181.512C112.055 181.683 112.37 181.768 112.818 181.768H113.89V183H112.578C111.767 183 111.159 182.813 110.754 182.44C110.348 182.067 110.146 181.453 110.146 180.6V175.432H109.01V174.232H110.146V172.024H111.602V174.232H113.89V175.432H111.602ZM116.406 172.808C116.129 172.808 115.894 172.712 115.702 172.52C115.51 172.328 115.414 172.093 115.414 171.816C115.414 171.539 115.51 171.304 115.702 171.112C115.894 170.92 116.129 170.824 116.406 170.824C116.673 170.824 116.897 170.92 117.078 171.112C117.27 171.304 117.366 171.539 117.366 171.816C117.366 172.093 117.27 172.328 117.078 172.52C116.897 172.712 116.673 172.808 116.406 172.808ZM117.11 174.232V183H115.654V174.232H117.11ZM123.415 183.144C122.594 183.144 121.847 182.957 121.175 182.584C120.514 182.211 119.991 181.683 119.607 181C119.234 180.307 119.047 179.507 119.047 178.6C119.047 177.704 119.239 176.915 119.623 176.232C120.018 175.539 120.551 175.011 121.223 174.648C121.895 174.275 122.647 174.088 123.479 174.088C124.311 174.088 125.063 174.275 125.735 174.648C126.407 175.011 126.935 175.533 127.319 176.216C127.714 176.899 127.911 177.693 127.911 178.6C127.911 179.507 127.709 180.307 127.303 181C126.909 181.683 126.37 182.211 125.687 182.584C125.005 182.957 124.247 183.144 123.415 183.144ZM123.415 181.864C123.938 181.864 124.429 181.741 124.887 181.496C125.346 181.251 125.714 180.883 125.991 180.392C126.279 179.901 126.423 179.304 126.423 178.6C126.423 177.896 126.285 177.299 126.007 176.808C125.73 176.317 125.367 175.955 124.919 175.72C124.471 175.475 123.986 175.352 123.463 175.352C122.93 175.352 122.439 175.475 121.991 175.72C121.554 175.955 121.202 176.317 120.935 176.808C120.669 177.299 120.535 177.896 120.535 178.6C120.535 179.315 120.663 179.917 120.919 180.408C121.186 180.899 121.538 181.267 121.975 181.512C122.413 181.747 122.893 181.864 123.415 181.864ZM134.098 174.072C135.164 174.072 136.028 174.397 136.69 175.048C137.351 175.688 137.682 176.616 137.682 177.832V183H136.242V178.04C136.242 177.165 136.023 176.499 135.586 176.04C135.148 175.571 134.551 175.336 133.794 175.336C133.026 175.336 132.412 175.576 131.954 176.056C131.506 176.536 131.282 177.235 131.282 178.152V183H129.826V174.232H131.282V175.48C131.57 175.032 131.959 174.685 132.45 174.44C132.951 174.195 133.5 174.072 134.098 174.072ZM145.078 172.808C144.8 172.808 144.566 172.712 144.374 172.52C144.182 172.328 144.086 172.093 144.086 171.816C144.086 171.539 144.182 171.304 144.374 171.112C144.566 170.92 144.8 170.824 145.078 170.824C145.344 170.824 145.568 170.92 145.75 171.112C145.942 171.304 146.038 171.539 146.038 171.816C146.038 172.093 145.942 172.328 145.75 172.52C145.568 172.712 145.344 172.808 145.078 172.808ZM145.782 174.232V183H144.326V174.232H145.782ZM151.367 183.144C150.695 183.144 150.093 183.032 149.559 182.808C149.026 182.573 148.605 182.253 148.295 181.848C147.986 181.432 147.815 180.957 147.783 180.424H149.287C149.33 180.861 149.533 181.219 149.895 181.496C150.269 181.773 150.754 181.912 151.351 181.912C151.906 181.912 152.343 181.789 152.663 181.544C152.983 181.299 153.143 180.989 153.143 180.616C153.143 180.232 152.973 179.949 152.631 179.768C152.29 179.576 151.762 179.389 151.047 179.208C150.397 179.037 149.863 178.867 149.447 178.696C149.042 178.515 148.69 178.253 148.391 177.912C148.103 177.56 147.959 177.101 147.959 176.536C147.959 176.088 148.093 175.677 148.359 175.304C148.626 174.931 149.005 174.637 149.495 174.424C149.986 174.2 150.546 174.088 151.175 174.088C152.146 174.088 152.93 174.333 153.527 174.824C154.125 175.315 154.445 175.987 154.487 176.84H153.031C152.999 176.381 152.813 176.013 152.471 175.736C152.141 175.459 151.693 175.32 151.127 175.32C150.605 175.32 150.189 175.432 149.879 175.656C149.57 175.88 149.415 176.173 149.415 176.536C149.415 176.824 149.506 177.064 149.687 177.256C149.879 177.437 150.114 177.587 150.391 177.704C150.679 177.811 151.074 177.933 151.575 178.072C152.205 178.243 152.717 178.413 153.111 178.584C153.506 178.744 153.842 178.989 154.119 179.32C154.407 179.651 154.557 180.083 154.567 180.616C154.567 181.096 154.434 181.528 154.167 181.912C153.901 182.296 153.522 182.6 153.031 182.824C152.551 183.037 151.997 183.144 151.367 183.144ZM163.992 183.144C163.32 183.144 162.718 183.032 162.184 182.808C161.651 182.573 161.23 182.253 160.92 181.848C160.611 181.432 160.44 180.957 160.408 180.424H161.912C161.955 180.861 162.158 181.219 162.52 181.496C162.894 181.773 163.379 181.912 163.976 181.912C164.531 181.912 164.968 181.789 165.288 181.544C165.608 181.299 165.768 180.989 165.768 180.616C165.768 180.232 165.598 179.949 165.256 179.768C164.915 179.576 164.387 179.389 163.672 179.208C163.022 179.037 162.488 178.867 162.072 178.696C161.667 178.515 161.315 178.253 161.016 177.912C160.728 177.56 160.584 177.101 160.584 176.536C160.584 176.088 160.718 175.677 160.984 175.304C161.251 174.931 161.63 174.637 162.12 174.424C162.611 174.2 163.171 174.088 163.8 174.088C164.771 174.088 165.555 174.333 166.152 174.824C166.75 175.315 167.07 175.987 167.112 176.84H165.656C165.624 176.381 165.438 176.013 165.096 175.736C164.766 175.459 164.318 175.32 163.752 175.32C163.23 175.32 162.814 175.432 162.504 175.656C162.195 175.88 162.04 176.173 162.04 176.536C162.04 176.824 162.131 177.064 162.312 177.256C162.504 177.437 162.739 177.587 163.016 177.704C163.304 177.811 163.699 177.933 164.2 178.072C164.83 178.243 165.342 178.413 165.736 178.584C166.131 178.744 166.467 178.989 166.744 179.32C167.032 179.651 167.182 180.083 167.192 180.616C167.192 181.096 167.059 181.528 166.792 181.912C166.526 182.296 166.147 182.6 165.656 182.824C165.176 183.037 164.622 183.144 163.992 183.144ZM177.248 178.28C177.248 178.557 177.232 178.851 177.2 179.16H170.192C170.245 180.024 170.538 180.701 171.072 181.192C171.616 181.672 172.272 181.912 173.04 181.912C173.669 181.912 174.192 181.768 174.608 181.48C175.034 181.181 175.333 180.787 175.504 180.296H177.072C176.837 181.139 176.368 181.827 175.664 182.36C174.96 182.883 174.085 183.144 173.04 183.144C172.208 183.144 171.461 182.957 170.8 182.584C170.149 182.211 169.637 181.683 169.264 181C168.89 180.307 168.704 179.507 168.704 178.6C168.704 177.693 168.885 176.899 169.248 176.216C169.61 175.533 170.117 175.011 170.768 174.648C171.429 174.275 172.186 174.088 173.04 174.088C173.872 174.088 174.608 174.269 175.248 174.632C175.888 174.995 176.378 175.496 176.72 176.136C177.072 176.765 177.248 177.48 177.248 178.28ZM175.744 177.976C175.744 177.421 175.621 176.947 175.376 176.552C175.13 176.147 174.794 175.843 174.368 175.64C173.952 175.427 173.488 175.32 172.976 175.32C172.24 175.32 171.61 175.555 171.088 176.024C170.576 176.493 170.282 177.144 170.208 177.976H175.744ZM183.442 174.072C184.508 174.072 185.372 174.397 186.034 175.048C186.695 175.688 187.026 176.616 187.026 177.832V183H185.586V178.04C185.586 177.165 185.367 176.499 184.93 176.04C184.492 175.571 183.895 175.336 183.138 175.336C182.37 175.336 181.756 175.576 181.298 176.056C180.85 176.536 180.626 177.235 180.626 178.152V183H179.17V174.232H180.626V175.48C180.914 175.032 181.303 174.685 181.794 174.44C182.295 174.195 182.844 174.072 183.442 174.072ZM191.18 175.432V180.6C191.18 181.027 191.271 181.331 191.452 181.512C191.633 181.683 191.948 181.768 192.396 181.768H193.468V183H192.156C191.345 183 190.737 182.813 190.332 182.44C189.927 182.067 189.724 181.453 189.724 180.6V175.432H188.588V174.232H189.724V172.024H191.18V174.232H193.468V175.432H191.18ZM201.274 175.432V180.6C201.274 181.027 201.364 181.331 201.546 181.512C201.727 181.683 202.042 181.768 202.49 181.768H203.562V183H202.25C201.439 183 200.831 182.813 200.426 182.44C200.02 182.067 199.818 181.453 199.818 180.6V175.432H198.682V174.232H199.818V172.024H201.274V174.232H203.562V175.432H201.274ZM209.15 183.144C208.328 183.144 207.582 182.957 206.91 182.584C206.248 182.211 205.726 181.683 205.342 181C204.968 180.307 204.782 179.507 204.782 178.6C204.782 177.704 204.974 176.915 205.358 176.232C205.752 175.539 206.286 175.011 206.958 174.648C207.63 174.275 208.382 174.088 209.214 174.088C210.046 174.088 210.798 174.275 211.47 174.648C212.142 175.011 212.67 175.533 213.054 176.216C213.448 176.899 213.646 177.693 213.646 178.6C213.646 179.507 213.443 180.307 213.038 181C212.643 181.683 212.104 182.211 211.422 182.584C210.739 182.957 209.982 183.144 209.15 183.144ZM209.15 181.864C209.672 181.864 210.163 181.741 210.622 181.496C211.08 181.251 211.448 180.883 211.726 180.392C212.014 179.901 212.158 179.304 212.158 178.6C212.158 177.896 212.019 177.299 211.742 176.808C211.464 176.317 211.102 175.955 210.654 175.72C210.206 175.475 209.72 175.352 209.198 175.352C208.664 175.352 208.174 175.475 207.726 175.72C207.288 175.955 206.936 176.317 206.67 176.808C206.403 177.299 206.27 177.896 206.27 178.6C206.27 179.315 206.398 179.917 206.654 180.408C206.92 180.899 207.272 181.267 207.71 181.512C208.147 181.747 208.627 181.864 209.15 181.864ZM227.378 174.232L222.098 187.128H220.594L222.322 182.904L218.786 174.232H220.402L223.154 181.336L225.874 174.232H227.378ZM232.665 183.144C231.844 183.144 231.097 182.957 230.425 182.584C229.764 182.211 229.241 181.683 228.857 181C228.484 180.307 228.297 179.507 228.297 178.6C228.297 177.704 228.489 176.915 228.873 176.232C229.268 175.539 229.801 175.011 230.473 174.648C231.145 174.275 231.897 174.088 232.729 174.088C233.561 174.088 234.313 174.275 234.985 174.648C235.657 175.011 236.185 175.533 236.569 176.216C236.964 176.899 237.161 177.693 237.161 178.6C237.161 179.507 236.959 180.307 236.553 181C236.159 181.683 235.62 182.211 234.937 182.584C234.255 182.957 233.497 183.144 232.665 183.144ZM232.665 181.864C233.188 181.864 233.679 181.741 234.137 181.496C234.596 181.251 234.964 180.883 235.241 180.392C235.529 179.901 235.673 179.304 235.673 178.6C235.673 177.896 235.535 177.299 235.257 176.808C234.98 176.317 234.617 175.955 234.169 175.72C233.721 175.475 233.236 175.352 232.713 175.352C232.18 175.352 231.689 175.475 231.241 175.72C230.804 175.955 230.452 176.317 230.185 176.808C229.919 177.299 229.785 177.896 229.785 178.6C229.785 179.315 229.913 179.917 230.169 180.408C230.436 180.899 230.788 181.267 231.225 181.512C231.663 181.747 232.143 181.864 232.665 181.864ZM246.852 174.232V183H245.396V181.704C245.118 182.152 244.729 182.504 244.228 182.76C243.737 183.005 243.193 183.128 242.596 183.128C241.913 183.128 241.3 182.989 240.756 182.712C240.212 182.424 239.78 181.997 239.46 181.432C239.15 180.867 238.996 180.179 238.996 179.368V174.232H240.436V179.176C240.436 180.04 240.654 180.707 241.092 181.176C241.529 181.635 242.126 181.864 242.884 181.864C243.662 181.864 244.276 181.624 244.724 181.144C245.172 180.664 245.396 179.965 245.396 179.048V174.232H246.852ZM250.766 175.656C251.022 175.155 251.385 174.765 251.854 174.488C252.334 174.211 252.915 174.072 253.598 174.072V175.576H253.214C251.582 175.576 250.766 176.461 250.766 178.232V183H249.31V174.232H250.766V175.656ZM267.545 178.28C267.545 178.557 267.529 178.851 267.497 179.16H260.489C260.542 180.024 260.835 180.701 261.369 181.192C261.913 181.672 262.569 181.912 263.337 181.912C263.966 181.912 264.489 181.768 264.905 181.48C265.331 181.181 265.63 180.787 265.801 180.296H267.369C267.134 181.139 266.665 181.827 265.961 182.36C265.257 182.883 264.382 183.144 263.337 183.144C262.505 183.144 261.758 182.957 261.097 182.584C260.446 182.211 259.934 181.683 259.561 181C259.187 180.307 259.001 179.507 259.001 178.6C259.001 177.693 259.182 176.899 259.545 176.216C259.907 175.533 260.414 175.011 261.065 174.648C261.726 174.275 262.483 174.088 263.337 174.088C264.169 174.088 264.905 174.269 265.545 174.632C266.185 174.995 266.675 175.496 267.017 176.136C267.369 176.765 267.545 177.48 267.545 178.28ZM266.041 177.976C266.041 177.421 265.918 176.947 265.673 176.552C265.427 176.147 265.091 175.843 264.665 175.64C264.249 175.427 263.785 175.32 263.273 175.32C262.537 175.32 261.907 175.555 261.385 176.024C260.873 176.493 260.579 177.144 260.505 177.976H266.041ZM280.01 174.072C280.693 174.072 281.301 174.216 281.834 174.504C282.368 174.781 282.789 175.203 283.098 175.768C283.408 176.333 283.562 177.021 283.562 177.832V183H282.122V178.04C282.122 177.165 281.904 176.499 281.466 176.04C281.04 175.571 280.458 175.336 279.722 175.336C278.965 175.336 278.362 175.581 277.914 176.072C277.466 176.552 277.242 177.251 277.242 178.168V183H275.802V178.04C275.802 177.165 275.584 176.499 275.146 176.04C274.72 175.571 274.138 175.336 273.402 175.336C272.645 175.336 272.042 175.581 271.594 176.072C271.146 176.552 270.922 177.251 270.922 178.168V183H269.466V174.232H270.922V175.496C271.21 175.037 271.594 174.685 272.074 174.44C272.565 174.195 273.104 174.072 273.69 174.072C274.426 174.072 275.077 174.237 275.642 174.568C276.208 174.899 276.629 175.384 276.906 176.024C277.152 175.405 277.557 174.925 278.122 174.584C278.688 174.243 279.317 174.072 280.01 174.072ZM285.407 178.584C285.407 177.688 285.588 176.904 285.951 176.232C286.313 175.549 286.809 175.021 287.439 174.648C288.079 174.275 288.788 174.088 289.567 174.088C290.335 174.088 291.001 174.253 291.567 174.584C292.132 174.915 292.553 175.331 292.831 175.832V174.232H294.303V183H292.831V181.368C292.543 181.88 292.111 182.307 291.535 182.648C290.969 182.979 290.308 183.144 289.551 183.144C288.772 183.144 288.068 182.952 287.439 182.568C286.809 182.184 286.313 181.645 285.951 180.952C285.588 180.259 285.407 179.469 285.407 178.584ZM292.831 178.6C292.831 177.939 292.697 177.363 292.431 176.872C292.164 176.381 291.801 176.008 291.343 175.752C290.895 175.485 290.399 175.352 289.855 175.352C289.311 175.352 288.815 175.48 288.367 175.736C287.919 175.992 287.561 176.365 287.295 176.856C287.028 177.347 286.895 177.923 286.895 178.584C286.895 179.256 287.028 179.843 287.295 180.344C287.561 180.835 287.919 181.213 288.367 181.48C288.815 181.736 289.311 181.864 289.855 181.864C290.399 181.864 290.895 181.736 291.343 181.48C291.801 181.213 292.164 180.835 292.431 180.344C292.697 179.843 292.831 179.261 292.831 178.6ZM297.515 172.808C297.238 172.808 297.003 172.712 296.811 172.52C296.619 172.328 296.523 172.093 296.523 171.816C296.523 171.539 296.619 171.304 296.811 171.112C297.003 170.92 297.238 170.824 297.515 170.824C297.782 170.824 298.006 170.92 298.187 171.112C298.379 171.304 298.475 171.539 298.475 171.816C298.475 172.093 298.379 172.328 298.187 172.52C298.006 172.712 297.782 172.808 297.515 172.808ZM298.219 174.232V183H296.763V174.232H298.219ZM302.157 171.16V183H300.701V171.16H302.157Z"
    fill="#0D63A5" />
  <path
    d="M146.095 227.095L170.476 242.333L194.857 227.095H146.095ZM146.095 269.762C144.419 269.762 142.985 269.166 141.792 267.973C140.599 266.78 140.002 265.345 140 263.667V227.095C140 225.419 140.597 223.985 141.792 222.792C142.987 221.599 144.421 221.002 146.095 221H194.857C196.533 221 197.969 221.597 199.163 222.792C200.358 223.987 200.954 225.421 200.952 227.095V242.333C200.952 243.197 200.66 243.921 200.075 244.506C199.49 245.091 198.766 245.383 197.905 245.381C197.043 245.379 196.32 245.086 195.735 244.503C195.15 243.92 194.857 243.197 194.857 242.333V233.19L172.076 247.438C171.924 247.54 171.39 247.692 170.476 247.895C170.222 247.895 169.956 247.858 169.678 247.782C169.399 247.707 169.132 247.593 168.876 247.438L146.095 233.19V263.667H162.857C163.721 263.667 164.445 263.959 165.03 264.544C165.615 265.13 165.907 265.853 165.905 266.714C165.903 267.576 165.61 268.3 165.027 268.887C164.444 269.474 163.721 269.766 162.857 269.762H146.095ZM182.514 267.324L197.6 252.238C198.159 251.679 198.87 251.4 199.733 251.4C200.597 251.4 201.308 251.679 201.867 252.238C202.425 252.797 202.705 253.508 202.705 254.371C202.705 255.235 202.425 255.946 201.867 256.505L184.648 273.724C184.038 274.333 183.327 274.638 182.514 274.638C181.702 274.638 180.99 274.333 180.381 273.724L171.695 265.038C171.137 264.479 170.857 263.768 170.857 262.905C170.857 262.041 171.137 261.33 171.695 260.771C172.254 260.213 172.965 259.933 173.829 259.933C174.692 259.933 175.403 260.213 175.962 260.771L182.514 267.324Z"
    fill="#1EBBA8" />
  <path
    d="M42.5447 410.636V411.524H40.2647V419H39.1727V411.524H36.8807V410.636H42.5447ZM47.1528 412.304C47.6488 412.304 48.0968 412.412 48.4968 412.628C48.8968 412.836 49.2088 413.152 49.4328 413.576C49.6648 414 49.7808 414.516 49.7808 415.124V419H48.7008V415.28C48.7008 414.624 48.5368 414.124 48.2088 413.78C47.8808 413.428 47.4328 413.252 46.8648 413.252C46.2888 413.252 45.8288 413.432 45.4848 413.792C45.1488 414.152 44.9808 414.676 44.9808 415.364V419H43.8888V410.12H44.9808V413.36C45.1968 413.024 45.4928 412.764 45.8688 412.58C46.2528 412.396 46.6808 412.304 47.1528 412.304ZM52.1286 411.356C51.9206 411.356 51.7446 411.284 51.6006 411.14C51.4566 410.996 51.3846 410.82 51.3846 410.612C51.3846 410.404 51.4566 410.228 51.6006 410.084C51.7446 409.94 51.9206 409.868 52.1286 409.868C52.3286 409.868 52.4966 409.94 52.6326 410.084C52.7766 410.228 52.8486 410.404 52.8486 410.612C52.8486 410.82 52.7766 410.996 52.6326 411.14C52.4966 411.284 52.3286 411.356 52.1286 411.356ZM52.6566 412.424V419H51.5646V412.424H52.6566ZM56.8458 419.108C56.3418 419.108 55.8898 419.024 55.4898 418.856C55.0898 418.68 54.7738 418.44 54.5418 418.136C54.3098 417.824 54.1818 417.468 54.1578 417.068H55.2858C55.3178 417.396 55.4698 417.664 55.7418 417.872C56.0218 418.08 56.3858 418.184 56.8338 418.184C57.2498 418.184 57.5778 418.092 57.8178 417.908C58.0578 417.724 58.1778 417.492 58.1778 417.212C58.1778 416.924 58.0498 416.712 57.7938 416.576C57.5378 416.432 57.1418 416.292 56.6058 416.156C56.1178 416.028 55.7178 415.9 55.4058 415.772C55.1018 415.636 54.8378 415.44 54.6138 415.184C54.3978 414.92 54.2898 414.576 54.2898 414.152C54.2898 413.816 54.3898 413.508 54.5898 413.228C54.7898 412.948 55.0738 412.728 55.4418 412.568C55.8098 412.4 56.2298 412.316 56.7018 412.316C57.4298 412.316 58.0178 412.5 58.4658 412.868C58.9138 413.236 59.1538 413.74 59.1858 414.38H58.0938C58.0698 414.036 57.9298 413.76 57.6738 413.552C57.4258 413.344 57.0898 413.24 56.6658 413.24C56.2738 413.24 55.9618 413.324 55.7298 413.492C55.4978 413.66 55.3818 413.88 55.3818 414.152C55.3818 414.368 55.4498 414.548 55.5858 414.692C55.7298 414.828 55.9058 414.94 56.1138 415.028C56.3298 415.108 56.6258 415.2 57.0018 415.304C57.4738 415.432 57.8578 415.56 58.1538 415.688C58.4498 415.808 58.7018 415.992 58.9098 416.24C59.1258 416.488 59.2378 416.812 59.2458 417.212C59.2458 417.572 59.1458 417.896 58.9458 418.184C58.7458 418.472 58.4618 418.7 58.0938 418.868C57.7338 419.028 57.3178 419.108 56.8458 419.108ZM64.5505 411.356C64.3425 411.356 64.1665 411.284 64.0225 411.14C63.8785 410.996 63.8065 410.82 63.8065 410.612C63.8065 410.404 63.8785 410.228 64.0225 410.084C64.1665 409.94 64.3425 409.868 64.5505 409.868C64.7505 409.868 64.9185 409.94 65.0545 410.084C65.1985 410.228 65.2705 410.404 65.2705 410.612C65.2705 410.82 65.1985 410.996 65.0545 411.14C64.9185 411.284 64.7505 411.356 64.5505 411.356ZM65.0785 412.424V419H63.9865V412.424H65.0785ZM69.2676 419.108C68.7636 419.108 68.3116 419.024 67.9116 418.856C67.5116 418.68 67.1956 418.44 66.9636 418.136C66.7316 417.824 66.6036 417.468 66.5796 417.068H67.7076C67.7396 417.396 67.8916 417.664 68.1636 417.872C68.4436 418.08 68.8076 418.184 69.2556 418.184C69.6716 418.184 69.9996 418.092 70.2396 417.908C70.4796 417.724 70.5996 417.492 70.5996 417.212C70.5996 416.924 70.4716 416.712 70.2156 416.576C69.9596 416.432 69.5636 416.292 69.0276 416.156C68.5396 416.028 68.1396 415.9 67.8276 415.772C67.5236 415.636 67.2596 415.44 67.0356 415.184C66.8196 414.92 66.7116 414.576 66.7116 414.152C66.7116 413.816 66.8116 413.508 67.0116 413.228C67.2116 412.948 67.4956 412.728 67.8636 412.568C68.2316 412.4 68.6516 412.316 69.1236 412.316C69.8516 412.316 70.4396 412.5 70.8876 412.868C71.3356 413.236 71.5756 413.74 71.6076 414.38H70.5156C70.4916 414.036 70.3516 413.76 70.0956 413.552C69.8476 413.344 69.5116 413.24 69.0876 413.24C68.6956 413.24 68.3836 413.324 68.1516 413.492C67.9196 413.66 67.8036 413.88 67.8036 414.152C67.8036 414.368 67.8716 414.548 68.0076 414.692C68.1516 414.828 68.3276 414.94 68.5356 415.028C68.7516 415.108 69.0476 415.2 69.4236 415.304C69.8956 415.432 70.2796 415.56 70.5756 415.688C70.8716 415.808 71.1236 415.992 71.3316 416.24C71.5476 416.488 71.6596 416.812 71.6676 417.212C71.6676 417.572 71.5676 417.896 71.3676 418.184C71.1676 418.472 70.8836 418.7 70.5156 418.868C70.1556 419.028 69.7396 419.108 69.2676 419.108ZM76.0004 415.688C76.0004 415.016 76.1364 414.428 76.4084 413.924C76.6804 413.412 77.0524 413.016 77.5244 412.736C78.0044 412.456 78.5364 412.316 79.1204 412.316C79.6964 412.316 80.1964 412.44 80.6204 412.688C81.0444 412.936 81.3604 413.248 81.5684 413.624V412.424H82.6724V419H81.5684V417.776C81.3524 418.16 81.0284 418.48 80.5964 418.736C80.1724 418.984 79.6764 419.108 79.1084 419.108C78.5244 419.108 77.9964 418.964 77.5244 418.676C77.0524 418.388 76.6804 417.984 76.4084 417.464C76.1364 416.944 76.0004 416.352 76.0004 415.688ZM81.5684 415.7C81.5684 415.204 81.4684 414.772 81.2684 414.404C81.0684 414.036 80.7964 413.756 80.4524 413.564C80.1164 413.364 79.7444 413.264 79.3364 413.264C78.9284 413.264 78.5564 413.36 78.2204 413.552C77.8844 413.744 77.6164 414.024 77.4164 414.392C77.2164 414.76 77.1164 415.192 77.1164 415.688C77.1164 416.192 77.2164 416.632 77.4164 417.008C77.6164 417.376 77.8844 417.66 78.2204 417.86C78.5564 418.052 78.9284 418.148 79.3364 418.148C79.7444 418.148 80.1164 418.052 80.4524 417.86C80.7964 417.66 81.0684 417.376 81.2684 417.008C81.4684 416.632 81.5684 416.196 81.5684 415.7ZM90.045 419.108C89.541 419.108 89.089 419.024 88.689 418.856C88.289 418.68 87.973 418.44 87.741 418.136C87.509 417.824 87.381 417.468 87.357 417.068H88.485C88.517 417.396 88.669 417.664 88.941 417.872C89.221 418.08 89.585 418.184 90.033 418.184C90.449 418.184 90.777 418.092 91.017 417.908C91.257 417.724 91.377 417.492 91.377 417.212C91.377 416.924 91.249 416.712 90.993 416.576C90.737 416.432 90.341 416.292 89.805 416.156C89.317 416.028 88.917 415.9 88.605 415.772C88.301 415.636 88.037 415.44 87.813 415.184C87.597 414.92 87.489 414.576 87.489 414.152C87.489 413.816 87.589 413.508 87.789 413.228C87.989 412.948 88.273 412.728 88.641 412.568C89.009 412.4 89.429 412.316 89.901 412.316C90.629 412.316 91.217 412.5 91.665 412.868C92.113 413.236 92.353 413.74 92.385 414.38H91.293C91.269 414.036 91.129 413.76 90.873 413.552C90.625 413.344 90.289 413.24 89.865 413.24C89.473 413.24 89.161 413.324 88.929 413.492C88.697 413.66 88.581 413.88 88.581 414.152C88.581 414.368 88.649 414.548 88.785 414.692C88.929 414.828 89.105 414.94 89.313 415.028C89.529 415.108 89.825 415.2 90.201 415.304C90.673 415.432 91.057 415.56 91.353 415.688C91.649 415.808 91.901 415.992 92.109 416.24C92.325 416.488 92.437 416.812 92.445 417.212C92.445 417.572 92.345 417.896 92.145 418.184C91.945 418.472 91.661 418.7 91.293 418.868C90.933 419.028 90.517 419.108 90.045 419.108ZM94.5505 411.356C94.3425 411.356 94.1665 411.284 94.0225 411.14C93.8785 410.996 93.8065 410.82 93.8065 410.612C93.8065 410.404 93.8785 410.228 94.0225 410.084C94.1665 409.94 94.3425 409.868 94.5505 409.868C94.7505 409.868 94.9185 409.94 95.0545 410.084C95.1985 410.228 95.2705 410.404 95.2705 410.612C95.2705 410.82 95.1985 410.996 95.0545 411.14C94.9185 411.284 94.7505 411.356 94.5505 411.356ZM95.0785 412.424V419H93.9865V412.424H95.0785ZM104.848 412.304C105.36 412.304 105.816 412.412 106.216 412.628C106.616 412.836 106.932 413.152 107.164 413.576C107.396 414 107.512 414.516 107.512 415.124V419H106.432V415.28C106.432 414.624 106.268 414.124 105.94 413.78C105.62 413.428 105.184 413.252 104.632 413.252C104.064 413.252 103.612 413.436 103.276 413.804C102.94 414.164 102.772 414.688 102.772 415.376V419H101.692V415.28C101.692 414.624 101.528 414.124 101.2 413.78C100.88 413.428 100.444 413.252 99.8916 413.252C99.3236 413.252 98.8716 413.436 98.5356 413.804C98.1996 414.164 98.0316 414.688 98.0316 415.376V419H96.9396V412.424H98.0316V413.372C98.2476 413.028 98.5356 412.764 98.8956 412.58C99.2636 412.396 99.6676 412.304 100.108 412.304C100.66 412.304 101.148 412.428 101.572 412.676C101.996 412.924 102.312 413.288 102.52 413.768C102.704 413.304 103.008 412.944 103.432 412.688C103.856 412.432 104.328 412.304 104.848 412.304ZM115.135 412.424V419H114.043V418.028C113.835 418.364 113.543 418.628 113.167 418.82C112.799 419.004 112.391 419.096 111.943 419.096C111.431 419.096 110.971 418.992 110.563 418.784C110.155 418.568 109.831 418.248 109.591 417.824C109.359 417.4 109.243 416.884 109.243 416.276V412.424H110.323V416.132C110.323 416.78 110.487 417.28 110.815 417.632C111.143 417.976 111.591 418.148 112.159 418.148C112.743 418.148 113.203 417.968 113.539 417.608C113.875 417.248 114.043 416.724 114.043 416.036V412.424H115.135ZM118.071 410.12V419H116.979V410.12H118.071ZM119.524 415.688C119.524 415.016 119.66 414.428 119.932 413.924C120.204 413.412 120.576 413.016 121.048 412.736C121.528 412.456 122.06 412.316 122.644 412.316C123.22 412.316 123.72 412.44 124.144 412.688C124.568 412.936 124.884 413.248 125.092 413.624V412.424H126.196V419H125.092V417.776C124.876 418.16 124.552 418.48 124.12 418.736C123.696 418.984 123.2 419.108 122.632 419.108C122.048 419.108 121.52 418.964 121.048 418.676C120.576 418.388 120.204 417.984 119.932 417.464C119.66 416.944 119.524 416.352 119.524 415.688ZM125.092 415.7C125.092 415.204 124.992 414.772 124.792 414.404C124.592 414.036 124.32 413.756 123.976 413.564C123.64 413.364 123.268 413.264 122.86 413.264C122.452 413.264 122.08 413.36 121.744 413.552C121.408 413.744 121.14 414.024 120.94 414.392C120.74 414.76 120.64 415.192 120.64 415.688C120.64 416.192 120.74 416.632 120.94 417.008C121.14 417.376 121.408 417.66 121.744 417.86C122.08 418.052 122.452 418.148 122.86 418.148C123.268 418.148 123.64 418.052 123.976 417.86C124.32 417.66 124.592 417.376 124.792 417.008C124.992 416.632 125.092 416.196 125.092 415.7ZM129.373 413.324V417.2C129.373 417.52 129.441 417.748 129.577 417.884C129.713 418.012 129.949 418.076 130.285 418.076H131.089V419H130.105C129.497 419 129.041 418.86 128.737 418.58C128.433 418.3 128.281 417.84 128.281 417.2V413.324H127.429V412.424H128.281V410.768H129.373V412.424H131.089V413.324H129.373ZM132.976 411.356C132.768 411.356 132.592 411.284 132.448 411.14C132.304 410.996 132.232 410.82 132.232 410.612C132.232 410.404 132.304 410.228 132.448 410.084C132.592 409.94 132.768 409.868 132.976 409.868C133.176 409.868 133.344 409.94 133.48 410.084C133.624 410.228 133.696 410.404 133.696 410.612C133.696 410.82 133.624 410.996 133.48 411.14C133.344 411.284 133.176 411.356 132.976 411.356ZM133.504 412.424V419H132.412V412.424H133.504ZM138.233 419.108C137.617 419.108 137.057 418.968 136.553 418.688C136.057 418.408 135.665 418.012 135.377 417.5C135.097 416.98 134.957 416.38 134.957 415.7C134.957 415.028 135.101 414.436 135.389 413.924C135.685 413.404 136.085 413.008 136.589 412.736C137.093 412.456 137.657 412.316 138.281 412.316C138.905 412.316 139.469 412.456 139.973 412.736C140.477 413.008 140.873 413.4 141.161 413.912C141.457 414.424 141.605 415.02 141.605 415.7C141.605 416.38 141.453 416.98 141.149 417.5C140.853 418.012 140.449 418.408 139.937 418.688C139.425 418.968 138.857 419.108 138.233 419.108ZM138.233 418.148C138.625 418.148 138.993 418.056 139.337 417.872C139.681 417.688 139.957 417.412 140.165 417.044C140.381 416.676 140.489 416.228 140.489 415.7C140.489 415.172 140.385 414.724 140.177 414.356C139.969 413.988 139.697 413.716 139.361 413.54C139.025 413.356 138.661 413.264 138.269 413.264C137.869 413.264 137.501 413.356 137.165 413.54C136.837 413.716 136.573 413.988 136.373 414.356C136.173 414.724 136.073 415.172 136.073 415.7C136.073 416.236 136.169 416.688 136.361 417.056C136.561 417.424 136.825 417.7 137.153 417.884C137.481 418.06 137.841 418.148 138.233 418.148ZM146.245 412.304C147.045 412.304 147.693 412.548 148.189 413.036C148.685 413.516 148.933 414.212 148.933 415.124V419H147.853V415.28C147.853 414.624 147.689 414.124 147.361 413.78C147.033 413.428 146.585 413.252 146.017 413.252C145.441 413.252 144.981 413.432 144.637 413.792C144.301 414.152 144.133 414.676 144.133 415.364V419H143.041V412.424H144.133V413.36C144.349 413.024 144.641 412.764 145.009 412.58C145.385 412.396 145.797 412.304 146.245 412.304ZM151.065 419.072C150.857 419.072 150.681 419 150.537 418.856C150.393 418.712 150.321 418.536 150.321 418.328C150.321 418.12 150.393 417.944 150.537 417.8C150.681 417.656 150.857 417.584 151.065 417.584C151.265 417.584 151.433 417.656 151.569 417.8C151.713 417.944 151.785 418.12 151.785 418.328C151.785 418.536 151.713 418.712 151.569 418.856C151.433 419 151.265 419.072 151.065 419.072ZM163.012 419H161.92L157.528 412.34V419H156.436V410.624H157.528L161.92 417.272V410.624H163.012V419ZM167.741 419.108C167.125 419.108 166.565 418.968 166.061 418.688C165.565 418.408 165.173 418.012 164.885 417.5C164.605 416.98 164.465 416.38 164.465 415.7C164.465 415.028 164.609 414.436 164.897 413.924C165.193 413.404 165.593 413.008 166.097 412.736C166.601 412.456 167.165 412.316 167.789 412.316C168.413 412.316 168.977 412.456 169.481 412.736C169.985 413.008 170.381 413.4 170.669 413.912C170.965 414.424 171.113 415.02 171.113 415.7C171.113 416.38 170.961 416.98 170.657 417.5C170.361 418.012 169.957 418.408 169.445 418.688C168.933 418.968 168.365 419.108 167.741 419.108ZM167.741 418.148C168.133 418.148 168.501 418.056 168.845 417.872C169.189 417.688 169.465 417.412 169.673 417.044C169.889 416.676 169.997 416.228 169.997 415.7C169.997 415.172 169.893 414.724 169.685 414.356C169.477 413.988 169.205 413.716 168.869 413.54C168.533 413.356 168.169 413.264 167.777 413.264C167.377 413.264 167.009 413.356 166.673 413.54C166.345 413.716 166.081 413.988 165.881 414.356C165.681 414.724 165.581 415.172 165.581 415.7C165.581 416.236 165.677 416.688 165.869 417.056C166.069 417.424 166.333 417.7 166.661 417.884C166.989 418.06 167.349 418.148 167.741 418.148ZM175.34 415.688C175.34 415.016 175.476 414.428 175.748 413.924C176.02 413.412 176.392 413.016 176.864 412.736C177.344 412.456 177.88 412.316 178.472 412.316C178.984 412.316 179.46 412.436 179.9 412.676C180.34 412.908 180.676 413.216 180.908 413.6V410.12H182.012V419H180.908V417.764C180.692 418.156 180.372 418.48 179.948 418.736C179.524 418.984 179.028 419.108 178.46 419.108C177.876 419.108 177.344 418.964 176.864 418.676C176.392 418.388 176.02 417.984 175.748 417.464C175.476 416.944 175.34 416.352 175.34 415.688ZM180.908 415.7C180.908 415.204 180.808 414.772 180.608 414.404C180.408 414.036 180.136 413.756 179.792 413.564C179.456 413.364 179.084 413.264 178.676 413.264C178.268 413.264 177.896 413.36 177.56 413.552C177.224 413.744 176.956 414.024 176.756 414.392C176.556 414.76 176.456 415.192 176.456 415.688C176.456 416.192 176.556 416.632 176.756 417.008C176.956 417.376 177.224 417.66 177.56 417.86C177.896 418.052 178.268 418.148 178.676 418.148C179.084 418.148 179.456 418.052 179.792 417.86C180.136 417.66 180.408 417.376 180.608 417.008C180.808 416.632 180.908 416.196 180.908 415.7ZM183.45 415.688C183.45 415.016 183.586 414.428 183.858 413.924C184.13 413.412 184.502 413.016 184.974 412.736C185.454 412.456 185.986 412.316 186.57 412.316C187.146 412.316 187.646 412.44 188.07 412.688C188.494 412.936 188.81 413.248 189.018 413.624V412.424H190.122V419H189.018V417.776C188.802 418.16 188.478 418.48 188.046 418.736C187.622 418.984 187.126 419.108 186.558 419.108C185.974 419.108 185.446 418.964 184.974 418.676C184.502 418.388 184.13 417.984 183.858 417.464C183.586 416.944 183.45 416.352 183.45 415.688ZM189.018 415.7C189.018 415.204 188.918 414.772 188.718 414.404C188.518 414.036 188.246 413.756 187.902 413.564C187.566 413.364 187.194 413.264 186.786 413.264C186.378 413.264 186.006 413.36 185.67 413.552C185.334 413.744 185.066 414.024 184.866 414.392C184.666 414.76 184.566 415.192 184.566 415.688C184.566 416.192 184.666 416.632 184.866 417.008C185.066 417.376 185.334 417.66 185.67 417.86C186.006 418.052 186.378 418.148 186.786 418.148C187.194 418.148 187.566 418.052 187.902 417.86C188.246 417.66 188.518 417.376 188.718 417.008C188.918 416.632 189.018 416.196 189.018 415.7ZM193.299 413.324V417.2C193.299 417.52 193.367 417.748 193.503 417.884C193.639 418.012 193.875 418.076 194.211 418.076H195.015V419H194.031C193.423 419 192.967 418.86 192.663 418.58C192.359 418.3 192.207 417.84 192.207 417.2V413.324H191.355V412.424H192.207V410.768H193.299V412.424H195.015V413.324H193.299ZM195.93 415.688C195.93 415.016 196.066 414.428 196.338 413.924C196.61 413.412 196.982 413.016 197.454 412.736C197.934 412.456 198.466 412.316 199.05 412.316C199.626 412.316 200.126 412.44 200.55 412.688C200.974 412.936 201.29 413.248 201.498 413.624V412.424H202.602V419H201.498V417.776C201.282 418.16 200.958 418.48 200.526 418.736C200.102 418.984 199.606 419.108 199.038 419.108C198.454 419.108 197.926 418.964 197.454 418.676C196.982 418.388 196.61 417.984 196.338 417.464C196.066 416.944 195.93 416.352 195.93 415.688ZM201.498 415.7C201.498 415.204 201.398 414.772 201.198 414.404C200.998 414.036 200.726 413.756 200.382 413.564C200.046 413.364 199.674 413.264 199.266 413.264C198.858 413.264 198.486 413.36 198.15 413.552C197.814 413.744 197.546 414.024 197.346 414.392C197.146 414.76 197.046 415.192 197.046 415.688C197.046 416.192 197.146 416.632 197.346 417.008C197.546 417.376 197.814 417.66 198.15 417.86C198.486 418.052 198.858 418.148 199.266 418.148C199.674 418.148 200.046 418.052 200.382 417.86C200.726 417.66 200.998 417.376 201.198 417.008C201.398 416.632 201.498 416.196 201.498 415.7ZM208.211 411.356C208.003 411.356 207.827 411.284 207.683 411.14C207.539 410.996 207.467 410.82 207.467 410.612C207.467 410.404 207.539 410.228 207.683 410.084C207.827 409.94 208.003 409.868 208.211 409.868C208.411 409.868 208.579 409.94 208.715 410.084C208.859 410.228 208.931 410.404 208.931 410.612C208.931 410.82 208.859 410.996 208.715 411.14C208.579 411.284 208.411 411.356 208.211 411.356ZM208.739 412.424V419H207.647V412.424H208.739ZM212.928 419.108C212.424 419.108 211.972 419.024 211.572 418.856C211.172 418.68 210.856 418.44 210.624 418.136C210.392 417.824 210.264 417.468 210.24 417.068H211.368C211.4 417.396 211.552 417.664 211.824 417.872C212.104 418.08 212.468 418.184 212.916 418.184C213.332 418.184 213.66 418.092 213.9 417.908C214.14 417.724 214.26 417.492 214.26 417.212C214.26 416.924 214.132 416.712 213.876 416.576C213.62 416.432 213.224 416.292 212.688 416.156C212.2 416.028 211.8 415.9 211.488 415.772C211.184 415.636 210.92 415.44 210.696 415.184C210.48 414.92 210.372 414.576 210.372 414.152C210.372 413.816 210.472 413.508 210.672 413.228C210.872 412.948 211.156 412.728 211.524 412.568C211.892 412.4 212.312 412.316 212.784 412.316C213.512 412.316 214.1 412.5 214.548 412.868C214.996 413.236 215.236 413.74 215.268 414.38H214.176C214.152 414.036 214.012 413.76 213.756 413.552C213.508 413.344 213.172 413.24 212.748 413.24C212.356 413.24 212.044 413.324 211.812 413.492C211.58 413.66 211.464 413.88 211.464 414.152C211.464 414.368 211.532 414.548 211.668 414.692C211.812 414.828 211.988 414.94 212.196 415.028C212.412 415.108 212.708 415.2 213.084 415.304C213.556 415.432 213.94 415.56 214.236 415.688C214.532 415.808 214.784 415.992 214.992 416.24C215.208 416.488 215.32 416.812 215.328 417.212C215.328 417.572 215.228 417.896 215.028 418.184C214.828 418.472 214.544 418.7 214.176 418.868C213.816 419.028 213.4 419.108 212.928 419.108ZM222.397 419.108C221.893 419.108 221.441 419.024 221.041 418.856C220.641 418.68 220.325 418.44 220.093 418.136C219.861 417.824 219.733 417.468 219.709 417.068H220.837C220.869 417.396 221.021 417.664 221.293 417.872C221.573 418.08 221.937 418.184 222.385 418.184C222.801 418.184 223.129 418.092 223.369 417.908C223.609 417.724 223.729 417.492 223.729 417.212C223.729 416.924 223.601 416.712 223.345 416.576C223.089 416.432 222.693 416.292 222.157 416.156C221.669 416.028 221.269 415.9 220.957 415.772C220.653 415.636 220.389 415.44 220.165 415.184C219.949 414.92 219.841 414.576 219.841 414.152C219.841 413.816 219.941 413.508 220.141 413.228C220.341 412.948 220.625 412.728 220.993 412.568C221.361 412.4 221.781 412.316 222.253 412.316C222.981 412.316 223.569 412.5 224.017 412.868C224.465 413.236 224.705 413.74 224.737 414.38H223.645C223.621 414.036 223.481 413.76 223.225 413.552C222.977 413.344 222.641 413.24 222.217 413.24C221.825 413.24 221.513 413.324 221.281 413.492C221.049 413.66 220.933 413.88 220.933 414.152C220.933 414.368 221.001 414.548 221.137 414.692C221.281 414.828 221.457 414.94 221.665 415.028C221.881 415.108 222.177 415.2 222.553 415.304C223.025 415.432 223.409 415.56 223.705 415.688C224.001 415.808 224.253 415.992 224.461 416.24C224.677 416.488 224.789 416.812 224.797 417.212C224.797 417.572 224.697 417.896 224.497 418.184C224.297 418.472 224.013 418.7 223.645 418.868C223.285 419.028 222.869 419.108 222.397 419.108ZM232.338 415.46C232.338 415.668 232.326 415.888 232.302 416.12H227.046C227.086 416.768 227.306 417.276 227.706 417.644C228.114 418.004 228.606 418.184 229.182 418.184C229.654 418.184 230.046 418.076 230.358 417.86C230.678 417.636 230.902 417.34 231.03 416.972H232.206C232.03 417.604 231.678 418.12 231.15 418.52C230.622 418.912 229.966 419.108 229.182 419.108C228.558 419.108 227.998 418.968 227.502 418.688C227.014 418.408 226.63 418.012 226.35 417.5C226.07 416.98 225.93 416.38 225.93 415.7C225.93 415.02 226.066 414.424 226.338 413.912C226.61 413.4 226.99 413.008 227.478 412.736C227.974 412.456 228.542 412.316 229.182 412.316C229.806 412.316 230.358 412.452 230.838 412.724C231.318 412.996 231.686 413.372 231.942 413.852C232.206 414.324 232.338 414.86 232.338 415.46ZM231.21 415.232C231.21 414.816 231.118 414.46 230.934 414.164C230.75 413.86 230.498 413.632 230.178 413.48C229.866 413.32 229.518 413.24 229.134 413.24C228.582 413.24 228.11 413.416 227.718 413.768C227.334 414.12 227.114 414.608 227.058 415.232H231.21ZM236.983 412.304C237.783 412.304 238.431 412.548 238.927 413.036C239.423 413.516 239.671 414.212 239.671 415.124V419H238.591V415.28C238.591 414.624 238.427 414.124 238.099 413.78C237.771 413.428 237.323 413.252 236.755 413.252C236.179 413.252 235.719 413.432 235.375 413.792C235.039 414.152 234.871 414.676 234.871 415.364V419H233.779V412.424H234.871V413.36C235.087 413.024 235.379 412.764 235.747 412.58C236.123 412.396 236.535 412.304 236.983 412.304ZM242.787 413.324V417.2C242.787 417.52 242.855 417.748 242.991 417.884C243.127 418.012 243.363 418.076 243.699 418.076H244.503V419H243.519C242.911 419 242.455 418.86 242.151 418.58C241.847 418.3 241.695 417.84 241.695 417.2V413.324H240.843V412.424H241.695V410.768H242.787V412.424H244.503V413.324H242.787ZM248.618 415.688C248.618 415.016 248.754 414.428 249.026 413.924C249.298 413.412 249.67 413.016 250.142 412.736C250.622 412.456 251.154 412.316 251.738 412.316C252.314 412.316 252.814 412.44 253.238 412.688C253.662 412.936 253.978 413.248 254.186 413.624V412.424H255.29V419H254.186V417.776C253.97 418.16 253.646 418.48 253.214 418.736C252.79 418.984 252.294 419.108 251.726 419.108C251.142 419.108 250.614 418.964 250.142 418.676C249.67 418.388 249.298 417.984 249.026 417.464C248.754 416.944 248.618 416.352 248.618 415.688ZM254.186 415.7C254.186 415.204 254.086 414.772 253.886 414.404C253.686 414.036 253.414 413.756 253.07 413.564C252.734 413.364 252.362 413.264 251.954 413.264C251.546 413.264 251.174 413.36 250.838 413.552C250.502 413.744 250.234 414.024 250.034 414.392C249.834 414.76 249.734 415.192 249.734 415.688C249.734 416.192 249.834 416.632 250.034 417.008C250.234 417.376 250.502 417.66 250.838 417.86C251.174 418.052 251.546 418.148 251.954 418.148C252.362 418.148 252.734 418.052 253.07 417.86C253.414 417.66 253.686 417.376 253.886 417.008C254.086 416.632 254.186 416.196 254.186 415.7ZM260.339 412.304C261.139 412.304 261.787 412.548 262.283 413.036C262.779 413.516 263.027 414.212 263.027 415.124V419H261.947V415.28C261.947 414.624 261.783 414.124 261.455 413.78C261.127 413.428 260.679 413.252 260.111 413.252C259.535 413.252 259.075 413.432 258.731 413.792C258.395 414.152 258.227 414.676 258.227 415.364V419H257.135V412.424H258.227V413.36C258.443 413.024 258.735 412.764 259.103 412.58C259.479 412.396 259.891 412.304 260.339 412.304ZM270.475 412.424L266.515 422.096H265.387L266.683 418.928L264.031 412.424H265.243L267.307 417.752L269.347 412.424H270.475ZM280.332 412.424L278.28 419H277.152L275.568 413.78L273.984 419H272.856L270.792 412.424H271.908L273.42 417.944L275.052 412.424H276.168L277.764 417.956L279.252 412.424H280.332ZM284.68 412.304C285.176 412.304 285.624 412.412 286.024 412.628C286.424 412.836 286.736 413.152 286.96 413.576C287.192 414 287.308 414.516 287.308 415.124V419H286.228V415.28C286.228 414.624 286.064 414.124 285.736 413.78C285.408 413.428 284.96 413.252 284.392 413.252C283.816 413.252 283.356 413.432 283.012 413.792C282.676 414.152 282.508 414.676 282.508 415.364V419H281.416V410.12H282.508V413.36C282.724 413.024 283.02 412.764 283.396 412.58C283.78 412.396 284.208 412.304 284.68 412.304ZM295.092 415.46C295.092 415.668 295.08 415.888 295.056 416.12H289.8C289.84 416.768 290.06 417.276 290.46 417.644C290.868 418.004 291.36 418.184 291.936 418.184C292.408 418.184 292.8 418.076 293.112 417.86C293.432 417.636 293.656 417.34 293.784 416.972H294.96C294.784 417.604 294.432 418.12 293.904 418.52C293.376 418.912 292.72 419.108 291.936 419.108C291.312 419.108 290.752 418.968 290.256 418.688C289.768 418.408 289.384 418.012 289.104 417.5C288.824 416.98 288.684 416.38 288.684 415.7C288.684 415.02 288.82 414.424 289.092 413.912C289.364 413.4 289.744 413.008 290.232 412.736C290.728 412.456 291.296 412.316 291.936 412.316C292.56 412.316 293.112 412.452 293.592 412.724C294.072 412.996 294.44 413.372 294.696 413.852C294.96 414.324 295.092 414.86 295.092 415.46ZM293.964 415.232C293.964 414.816 293.872 414.46 293.688 414.164C293.504 413.86 293.252 413.632 292.932 413.48C292.62 413.32 292.272 413.24 291.888 413.24C291.336 413.24 290.864 413.416 290.472 413.768C290.088 414.12 289.868 414.608 289.812 415.232H293.964ZM297.625 413.492C297.817 413.116 298.089 412.824 298.441 412.616C298.801 412.408 299.237 412.304 299.749 412.304V413.432H299.461C298.237 413.432 297.625 414.096 297.625 415.424V419H296.533V412.424H297.625V413.492ZM307.01 415.46C307.01 415.668 306.998 415.888 306.974 416.12H301.718C301.758 416.768 301.978 417.276 302.378 417.644C302.786 418.004 303.278 418.184 303.854 418.184C304.326 418.184 304.718 418.076 305.03 417.86C305.35 417.636 305.574 417.34 305.702 416.972H306.878C306.702 417.604 306.35 418.12 305.822 418.52C305.294 418.912 304.638 419.108 303.854 419.108C303.23 419.108 302.67 418.968 302.174 418.688C301.686 418.408 301.302 418.012 301.022 417.5C300.742 416.98 300.602 416.38 300.602 415.7C300.602 415.02 300.738 414.424 301.01 413.912C301.282 413.4 301.662 413.008 302.15 412.736C302.646 412.456 303.214 412.316 303.854 412.316C304.478 412.316 305.03 412.452 305.51 412.724C305.99 412.996 306.358 413.372 306.614 413.852C306.878 414.324 307.01 414.86 307.01 415.46ZM305.882 415.232C305.882 414.816 305.79 414.46 305.606 414.164C305.422 413.86 305.17 413.632 304.85 413.48C304.538 413.32 304.19 413.24 303.806 413.24C303.254 413.24 302.782 413.416 302.39 413.768C302.006 414.12 301.786 414.608 301.73 415.232H305.882Z"
    fill="#ABABAB" />
</svg>
  