<svg width="519" height="441" viewBox="0 0 519 441" fill="none" xmlns="http://www.w3.org/2000/svg">
  <rect y="0.864868" width="519" height="440" rx="16" fill="white" />
  <path
    d="M135.418 181.385H130.554L129.658 183.865H128.122L132.154 172.777H133.834L137.85 183.865H136.314L135.418 181.385ZM135.002 180.201L132.986 174.569L130.97 180.201H135.002ZM143.879 174.937C144.946 174.937 145.81 175.262 146.471 175.913C147.132 176.553 147.463 177.481 147.463 178.697V183.865H146.023V178.905C146.023 178.03 145.804 177.364 145.367 176.905C144.93 176.436 144.332 176.201 143.575 176.201C142.807 176.201 142.194 176.441 141.735 176.921C141.287 177.401 141.063 178.1 141.063 179.017V183.865H139.607V175.097H141.063V176.345C141.351 175.897 141.74 175.55 142.231 175.305C142.732 175.06 143.282 174.937 143.879 174.937ZM154.859 173.673C154.582 173.673 154.347 173.577 154.155 173.385C153.963 173.193 153.867 172.958 153.867 172.681C153.867 172.404 153.963 172.169 154.155 171.977C154.347 171.785 154.582 171.689 154.859 171.689C155.126 171.689 155.35 171.785 155.531 171.977C155.723 172.169 155.819 172.404 155.819 172.681C155.819 172.958 155.723 173.193 155.531 173.385C155.35 173.577 155.126 173.673 154.859 173.673ZM155.563 175.097V183.865H154.107V175.097H155.563ZM162.317 174.937C163.383 174.937 164.247 175.262 164.909 175.913C165.57 176.553 165.901 177.481 165.901 178.697V183.865H164.461V178.905C164.461 178.03 164.242 177.364 163.805 176.905C163.367 176.436 162.77 176.201 162.013 176.201C161.245 176.201 160.631 176.441 160.173 176.921C159.725 177.401 159.501 178.1 159.501 179.017V183.865H158.045V175.097H159.501V176.345C159.789 175.897 160.178 175.55 160.669 175.305C161.17 175.06 161.719 174.937 162.317 174.937ZM171.543 182.521L174.263 175.097H175.815L172.375 183.865H170.679L167.239 175.097H168.807L171.543 182.521ZM178 173.673C177.722 173.673 177.488 173.577 177.296 173.385C177.104 173.193 177.008 172.958 177.008 172.681C177.008 172.404 177.104 172.169 177.296 171.977C177.488 171.785 177.722 171.689 178 171.689C178.266 171.689 178.49 171.785 178.672 171.977C178.864 172.169 178.96 172.404 178.96 172.681C178.96 172.958 178.864 173.193 178.672 173.385C178.49 173.577 178.266 173.673 178 173.673ZM178.704 175.097V183.865H177.248V175.097H178.704ZM182.961 176.297V181.465C182.961 181.892 183.052 182.196 183.233 182.377C183.414 182.548 183.729 182.633 184.177 182.633H185.249V183.865H183.937C183.126 183.865 182.518 183.678 182.113 183.305C181.708 182.932 181.505 182.318 181.505 181.465V176.297H180.369V175.097H181.505V172.889H182.961V175.097H185.249V176.297H182.961ZM186.469 179.449C186.469 178.553 186.651 177.769 187.013 177.097C187.376 176.414 187.872 175.886 188.501 175.513C189.141 175.14 189.851 174.953 190.629 174.953C191.397 174.953 192.064 175.118 192.629 175.449C193.195 175.78 193.616 176.196 193.893 176.697V175.097H195.365V183.865H193.893V182.233C193.605 182.745 193.173 183.172 192.597 183.513C192.032 183.844 191.371 184.009 190.613 184.009C189.835 184.009 189.131 183.817 188.501 183.433C187.872 183.049 187.376 182.51 187.013 181.817C186.651 181.124 186.469 180.334 186.469 179.449ZM193.893 179.465C193.893 178.804 193.76 178.228 193.493 177.737C193.227 177.246 192.864 176.873 192.405 176.617C191.957 176.35 191.461 176.217 190.917 176.217C190.373 176.217 189.877 176.345 189.429 176.601C188.981 176.857 188.624 177.23 188.357 177.721C188.091 178.212 187.957 178.788 187.957 179.449C187.957 180.121 188.091 180.708 188.357 181.209C188.624 181.7 188.981 182.078 189.429 182.345C189.877 182.601 190.373 182.729 190.917 182.729C191.461 182.729 191.957 182.601 192.405 182.345C192.864 182.078 193.227 181.7 193.493 181.209C193.76 180.708 193.893 180.126 193.893 179.465ZM199.602 176.297V181.465C199.602 181.892 199.692 182.196 199.874 182.377C200.055 182.548 200.37 182.633 200.818 182.633H201.89V183.865H200.578C199.767 183.865 199.159 183.678 198.754 183.305C198.348 182.932 198.146 182.318 198.146 181.465V176.297H197.01V175.097H198.146V172.889H199.602V175.097H201.89V176.297H199.602ZM204.406 173.673C204.129 173.673 203.894 173.577 203.702 173.385C203.51 173.193 203.414 172.958 203.414 172.681C203.414 172.404 203.51 172.169 203.702 171.977C203.894 171.785 204.129 171.689 204.406 171.689C204.673 171.689 204.897 171.785 205.078 171.977C205.27 172.169 205.366 172.404 205.366 172.681C205.366 172.958 205.27 173.193 205.078 173.385C204.897 173.577 204.673 173.673 204.406 173.673ZM205.11 175.097V183.865H203.654V175.097H205.11ZM211.415 184.009C210.594 184.009 209.847 183.822 209.175 183.449C208.514 183.076 207.991 182.548 207.607 181.865C207.234 181.172 207.047 180.372 207.047 179.465C207.047 178.569 207.239 177.78 207.623 177.097C208.018 176.404 208.551 175.876 209.223 175.513C209.895 175.14 210.647 174.953 211.479 174.953C212.311 174.953 213.063 175.14 213.735 175.513C214.407 175.876 214.935 176.398 215.319 177.081C215.714 177.764 215.911 178.558 215.911 179.465C215.911 180.372 215.709 181.172 215.303 181.865C214.909 182.548 214.37 183.076 213.687 183.449C213.005 183.822 212.247 184.009 211.415 184.009ZM211.415 182.729C211.938 182.729 212.429 182.606 212.887 182.361C213.346 182.116 213.714 181.748 213.991 181.257C214.279 180.766 214.423 180.169 214.423 179.465C214.423 178.761 214.285 178.164 214.007 177.673C213.73 177.182 213.367 176.82 212.919 176.585C212.471 176.34 211.986 176.217 211.463 176.217C210.93 176.217 210.439 176.34 209.991 176.585C209.554 176.82 209.202 177.182 208.935 177.673C208.669 178.164 208.535 178.761 208.535 179.465C208.535 180.18 208.663 180.782 208.919 181.273C209.186 181.764 209.538 182.132 209.975 182.377C210.413 182.612 210.893 182.729 211.415 182.729ZM222.098 174.937C223.164 174.937 224.028 175.262 224.69 175.913C225.351 176.553 225.682 177.481 225.682 178.697V183.865H224.242V178.905C224.242 178.03 224.023 177.364 223.586 176.905C223.148 176.436 222.551 176.201 221.794 176.201C221.026 176.201 220.412 176.441 219.954 176.921C219.506 177.401 219.282 178.1 219.282 179.017V183.865H217.826V175.097H219.282V176.345C219.57 175.897 219.959 175.55 220.45 175.305C220.951 175.06 221.5 174.937 222.098 174.937ZM233.078 173.673C232.8 173.673 232.566 173.577 232.374 173.385C232.182 173.193 232.086 172.958 232.086 172.681C232.086 172.404 232.182 172.169 232.374 171.977C232.566 171.785 232.8 171.689 233.078 171.689C233.344 171.689 233.568 171.785 233.75 171.977C233.942 172.169 234.038 172.404 234.038 172.681C234.038 172.958 233.942 173.193 233.75 173.385C233.568 173.577 233.344 173.673 233.078 173.673ZM233.782 175.097V183.865H232.326V175.097H233.782ZM239.367 184.009C238.695 184.009 238.093 183.897 237.559 183.673C237.026 183.438 236.605 183.118 236.295 182.713C235.986 182.297 235.815 181.822 235.783 181.289H237.287C237.33 181.726 237.533 182.084 237.895 182.361C238.269 182.638 238.754 182.777 239.351 182.777C239.906 182.777 240.343 182.654 240.663 182.409C240.983 182.164 241.143 181.854 241.143 181.481C241.143 181.097 240.973 180.814 240.631 180.633C240.29 180.441 239.762 180.254 239.047 180.073C238.397 179.902 237.863 179.732 237.447 179.561C237.042 179.38 236.69 179.118 236.391 178.777C236.103 178.425 235.959 177.966 235.959 177.401C235.959 176.953 236.093 176.542 236.359 176.169C236.626 175.796 237.005 175.502 237.495 175.289C237.986 175.065 238.546 174.953 239.175 174.953C240.146 174.953 240.93 175.198 241.527 175.689C242.125 176.18 242.445 176.852 242.487 177.705H241.031C240.999 177.246 240.813 176.878 240.471 176.601C240.141 176.324 239.693 176.185 239.127 176.185C238.605 176.185 238.189 176.297 237.879 176.521C237.57 176.745 237.415 177.038 237.415 177.401C237.415 177.689 237.506 177.929 237.687 178.121C237.879 178.302 238.114 178.452 238.391 178.569C238.679 178.676 239.074 178.798 239.575 178.937C240.205 179.108 240.717 179.278 241.111 179.449C241.506 179.609 241.842 179.854 242.119 180.185C242.407 180.516 242.557 180.948 242.567 181.481C242.567 181.961 242.434 182.393 242.167 182.777C241.901 183.161 241.522 183.465 241.031 183.689C240.551 183.902 239.997 184.009 239.367 184.009ZM251.992 184.009C251.32 184.009 250.718 183.897 250.184 183.673C249.651 183.438 249.23 183.118 248.92 182.713C248.611 182.297 248.44 181.822 248.408 181.289H249.912C249.955 181.726 250.158 182.084 250.52 182.361C250.894 182.638 251.379 182.777 251.976 182.777C252.531 182.777 252.968 182.654 253.288 182.409C253.608 182.164 253.768 181.854 253.768 181.481C253.768 181.097 253.598 180.814 253.256 180.633C252.915 180.441 252.387 180.254 251.672 180.073C251.022 179.902 250.488 179.732 250.072 179.561C249.667 179.38 249.315 179.118 249.016 178.777C248.728 178.425 248.584 177.966 248.584 177.401C248.584 176.953 248.718 176.542 248.984 176.169C249.251 175.796 249.63 175.502 250.12 175.289C250.611 175.065 251.171 174.953 251.8 174.953C252.771 174.953 253.555 175.198 254.152 175.689C254.75 176.18 255.07 176.852 255.112 177.705H253.656C253.624 177.246 253.438 176.878 253.096 176.601C252.766 176.324 252.318 176.185 251.752 176.185C251.23 176.185 250.814 176.297 250.504 176.521C250.195 176.745 250.04 177.038 250.04 177.401C250.04 177.689 250.131 177.929 250.312 178.121C250.504 178.302 250.739 178.452 251.016 178.569C251.304 178.676 251.699 178.798 252.2 178.937C252.83 179.108 253.342 179.278 253.736 179.449C254.131 179.609 254.467 179.854 254.744 180.185C255.032 180.516 255.182 180.948 255.192 181.481C255.192 181.961 255.059 182.393 254.792 182.777C254.526 183.161 254.147 183.465 253.656 183.689C253.176 183.902 252.622 184.009 251.992 184.009ZM265.248 179.145C265.248 179.422 265.232 179.716 265.2 180.025H258.192C258.245 180.889 258.538 181.566 259.072 182.057C259.616 182.537 260.272 182.777 261.04 182.777C261.669 182.777 262.192 182.633 262.608 182.345C263.034 182.046 263.333 181.652 263.504 181.161H265.072C264.837 182.004 264.368 182.692 263.664 183.225C262.96 183.748 262.085 184.009 261.04 184.009C260.208 184.009 259.461 183.822 258.8 183.449C258.149 183.076 257.637 182.548 257.264 181.865C256.89 181.172 256.704 180.372 256.704 179.465C256.704 178.558 256.885 177.764 257.248 177.081C257.61 176.398 258.117 175.876 258.768 175.513C259.429 175.14 260.186 174.953 261.04 174.953C261.872 174.953 262.608 175.134 263.248 175.497C263.888 175.86 264.378 176.361 264.72 177.001C265.072 177.63 265.248 178.345 265.248 179.145ZM263.744 178.841C263.744 178.286 263.621 177.812 263.376 177.417C263.13 177.012 262.794 176.708 262.368 176.505C261.952 176.292 261.488 176.185 260.976 176.185C260.24 176.185 259.61 176.42 259.088 176.889C258.576 177.358 258.282 178.009 258.208 178.841H263.744ZM271.442 174.937C272.508 174.937 273.372 175.262 274.034 175.913C274.695 176.553 275.026 177.481 275.026 178.697V183.865H273.586V178.905C273.586 178.03 273.367 177.364 272.93 176.905C272.492 176.436 271.895 176.201 271.138 176.201C270.37 176.201 269.756 176.441 269.298 176.921C268.85 177.401 268.626 178.1 268.626 179.017V183.865H267.17V175.097H268.626V176.345C268.914 175.897 269.303 175.55 269.794 175.305C270.295 175.06 270.844 174.937 271.442 174.937ZM279.18 176.297V181.465C279.18 181.892 279.271 182.196 279.452 182.377C279.633 182.548 279.948 182.633 280.396 182.633H281.468V183.865H280.156C279.345 183.865 278.737 183.678 278.332 183.305C277.927 182.932 277.724 182.318 277.724 181.465V176.297H276.588V175.097H277.724V172.889H279.18V175.097H281.468V176.297H279.18ZM289.274 176.297V181.465C289.274 181.892 289.364 182.196 289.546 182.377C289.727 182.548 290.042 182.633 290.49 182.633H291.562V183.865H290.25C289.439 183.865 288.831 183.678 288.426 183.305C288.02 182.932 287.818 182.318 287.818 181.465V176.297H286.682V175.097H287.818V172.889H289.274V175.097H291.562V176.297H289.274ZM297.15 184.009C296.328 184.009 295.582 183.822 294.91 183.449C294.248 183.076 293.726 182.548 293.342 181.865C292.968 181.172 292.782 180.372 292.782 179.465C292.782 178.569 292.974 177.78 293.358 177.097C293.752 176.404 294.286 175.876 294.958 175.513C295.63 175.14 296.382 174.953 297.214 174.953C298.046 174.953 298.798 175.14 299.47 175.513C300.142 175.876 300.67 176.398 301.054 177.081C301.448 177.764 301.646 178.558 301.646 179.465C301.646 180.372 301.443 181.172 301.038 181.865C300.643 182.548 300.104 183.076 299.422 183.449C298.739 183.822 297.982 184.009 297.15 184.009ZM297.15 182.729C297.672 182.729 298.163 182.606 298.622 182.361C299.08 182.116 299.448 181.748 299.726 181.257C300.014 180.766 300.158 180.169 300.158 179.465C300.158 178.761 300.019 178.164 299.742 177.673C299.464 177.182 299.102 176.82 298.654 176.585C298.206 176.34 297.72 176.217 297.198 176.217C296.664 176.217 296.174 176.34 295.726 176.585C295.288 176.82 294.936 177.182 294.67 177.673C294.403 178.164 294.27 178.761 294.27 179.465C294.27 180.18 294.398 180.782 294.654 181.273C294.92 181.764 295.272 182.132 295.71 182.377C296.147 182.612 296.627 182.729 297.15 182.729ZM315.378 175.097L310.098 187.993H308.594L310.322 183.769L306.786 175.097H308.402L311.154 182.201L313.874 175.097H315.378ZM320.665 184.009C319.844 184.009 319.097 183.822 318.425 183.449C317.764 183.076 317.241 182.548 316.857 181.865C316.484 181.172 316.297 180.372 316.297 179.465C316.297 178.569 316.489 177.78 316.873 177.097C317.268 176.404 317.801 175.876 318.473 175.513C319.145 175.14 319.897 174.953 320.729 174.953C321.561 174.953 322.313 175.14 322.985 175.513C323.657 175.876 324.185 176.398 324.569 177.081C324.964 177.764 325.161 178.558 325.161 179.465C325.161 180.372 324.959 181.172 324.553 181.865C324.159 182.548 323.62 183.076 322.937 183.449C322.255 183.822 321.497 184.009 320.665 184.009ZM320.665 182.729C321.188 182.729 321.679 182.606 322.137 182.361C322.596 182.116 322.964 181.748 323.241 181.257C323.529 180.766 323.673 180.169 323.673 179.465C323.673 178.761 323.535 178.164 323.257 177.673C322.98 177.182 322.617 176.82 322.169 176.585C321.721 176.34 321.236 176.217 320.713 176.217C320.18 176.217 319.689 176.34 319.241 176.585C318.804 176.82 318.452 177.182 318.185 177.673C317.919 178.164 317.785 178.761 317.785 179.465C317.785 180.18 317.913 180.782 318.169 181.273C318.436 181.764 318.788 182.132 319.225 182.377C319.663 182.612 320.143 182.729 320.665 182.729ZM334.852 175.097V183.865H333.396V182.569C333.118 183.017 332.729 183.369 332.228 183.625C331.737 183.87 331.193 183.993 330.596 183.993C329.913 183.993 329.3 183.854 328.756 183.577C328.212 183.289 327.78 182.862 327.46 182.297C327.15 181.732 326.996 181.044 326.996 180.233V175.097H328.436V180.041C328.436 180.905 328.654 181.572 329.092 182.041C329.529 182.5 330.126 182.729 330.884 182.729C331.662 182.729 332.276 182.489 332.724 182.009C333.172 181.529 333.396 180.83 333.396 179.913V175.097H334.852ZM338.766 176.521C339.022 176.02 339.385 175.63 339.854 175.353C340.334 175.076 340.915 174.937 341.598 174.937V176.441H341.214C339.582 176.441 338.766 177.326 338.766 179.097V183.865H337.31V175.097H338.766V176.521ZM355.545 179.145C355.545 179.422 355.529 179.716 355.497 180.025H348.489C348.542 180.889 348.835 181.566 349.369 182.057C349.913 182.537 350.569 182.777 351.337 182.777C351.966 182.777 352.489 182.633 352.905 182.345C353.331 182.046 353.63 181.652 353.801 181.161H355.369C355.134 182.004 354.665 182.692 353.961 183.225C353.257 183.748 352.382 184.009 351.337 184.009C350.505 184.009 349.758 183.822 349.097 183.449C348.446 183.076 347.934 182.548 347.561 181.865C347.187 181.172 347.001 180.372 347.001 179.465C347.001 178.558 347.182 177.764 347.545 177.081C347.907 176.398 348.414 175.876 349.065 175.513C349.726 175.14 350.483 174.953 351.337 174.953C352.169 174.953 352.905 175.134 353.545 175.497C354.185 175.86 354.675 176.361 355.017 177.001C355.369 177.63 355.545 178.345 355.545 179.145ZM354.041 178.841C354.041 178.286 353.918 177.812 353.673 177.417C353.427 177.012 353.091 176.708 352.665 176.505C352.249 176.292 351.785 176.185 351.273 176.185C350.537 176.185 349.907 176.42 349.385 176.889C348.873 177.358 348.579 178.009 348.505 178.841H354.041ZM368.01 174.937C368.693 174.937 369.301 175.081 369.834 175.369C370.368 175.646 370.789 176.068 371.098 176.633C371.408 177.198 371.562 177.886 371.562 178.697V183.865H370.122V178.905C370.122 178.03 369.904 177.364 369.466 176.905C369.04 176.436 368.458 176.201 367.722 176.201C366.965 176.201 366.362 176.446 365.914 176.937C365.466 177.417 365.242 178.116 365.242 179.033V183.865H363.802V178.905C363.802 178.03 363.584 177.364 363.146 176.905C362.72 176.436 362.138 176.201 361.402 176.201C360.645 176.201 360.042 176.446 359.594 176.937C359.146 177.417 358.922 178.116 358.922 179.033V183.865H357.466V175.097H358.922V176.361C359.21 175.902 359.594 175.55 360.074 175.305C360.565 175.06 361.104 174.937 361.69 174.937C362.426 174.937 363.077 175.102 363.642 175.433C364.208 175.764 364.629 176.249 364.906 176.889C365.152 176.27 365.557 175.79 366.122 175.449C366.688 175.108 367.317 174.937 368.01 174.937ZM373.407 179.449C373.407 178.553 373.588 177.769 373.951 177.097C374.313 176.414 374.809 175.886 375.439 175.513C376.079 175.14 376.788 174.953 377.567 174.953C378.335 174.953 379.001 175.118 379.567 175.449C380.132 175.78 380.553 176.196 380.831 176.697V175.097H382.303V183.865H380.831V182.233C380.543 182.745 380.111 183.172 379.535 183.513C378.969 183.844 378.308 184.009 377.551 184.009C376.772 184.009 376.068 183.817 375.439 183.433C374.809 183.049 374.313 182.51 373.951 181.817C373.588 181.124 373.407 180.334 373.407 179.449ZM380.831 179.465C380.831 178.804 380.697 178.228 380.431 177.737C380.164 177.246 379.801 176.873 379.343 176.617C378.895 176.35 378.399 176.217 377.855 176.217C377.311 176.217 376.815 176.345 376.367 176.601C375.919 176.857 375.561 177.23 375.295 177.721C375.028 178.212 374.895 178.788 374.895 179.449C374.895 180.121 375.028 180.708 375.295 181.209C375.561 181.7 375.919 182.078 376.367 182.345C376.815 182.601 377.311 182.729 377.855 182.729C378.399 182.729 378.895 182.601 379.343 182.345C379.801 182.078 380.164 181.7 380.431 181.209C380.697 180.708 380.831 180.126 380.831 179.465ZM385.515 173.673C385.238 173.673 385.003 173.577 384.811 173.385C384.619 173.193 384.523 172.958 384.523 172.681C384.523 172.404 384.619 172.169 384.811 171.977C385.003 171.785 385.238 171.689 385.515 171.689C385.782 171.689 386.006 171.785 386.187 171.977C386.379 172.169 386.475 172.404 386.475 172.681C386.475 172.958 386.379 173.193 386.187 173.385C386.006 173.577 385.782 173.673 385.515 173.673ZM386.219 175.097V183.865H384.763V175.097H386.219ZM390.157 172.025V183.865H388.701V172.025H390.157Z"
    fill="#0D63A5" />
  <g clip-path="url(#clip0_234_504)">
    <path
      d="M234.095 227.96L258.476 243.198L282.857 227.96H234.095ZM234.095 270.627C232.419 270.627 230.985 270.03 229.792 268.838C228.599 267.645 228.002 266.21 228 264.532V227.96C228 226.284 228.597 224.85 229.792 223.657C230.987 222.464 232.421 221.867 234.095 221.865H282.857C284.533 221.865 285.969 222.462 287.163 223.657C288.358 224.852 288.954 226.286 288.952 227.96V243.198C288.952 244.062 288.66 244.786 288.075 245.371C287.49 245.956 286.766 246.248 285.905 246.246C285.043 246.244 284.32 245.951 283.735 245.368C283.15 244.785 282.857 244.062 282.857 243.198V234.055L260.076 248.303C259.924 248.405 259.39 248.557 258.476 248.76C258.222 248.76 257.956 248.723 257.678 248.647C257.399 248.572 257.132 248.457 256.876 248.303L234.095 234.055V264.532H250.857C251.721 264.532 252.445 264.824 253.03 265.409C253.615 265.994 253.907 266.718 253.905 267.579C253.903 268.441 253.61 269.165 253.027 269.752C252.444 270.339 251.721 270.631 250.857 270.627H234.095ZM270.514 268.189L285.6 253.103C286.159 252.544 286.87 252.265 287.733 252.265C288.597 252.265 289.308 252.544 289.867 253.103C290.425 253.662 290.705 254.373 290.705 255.236C290.705 256.1 290.425 256.811 289.867 257.37L272.648 274.589C272.038 275.198 271.327 275.503 270.514 275.503C269.702 275.503 268.99 275.198 268.381 274.589L259.695 265.903C259.137 265.344 258.857 264.633 258.857 263.77C258.857 262.906 259.137 262.195 259.695 261.636C260.254 261.078 260.965 260.798 261.829 260.798C262.692 260.798 263.403 261.078 263.962 261.636L270.514 268.189Z"
      fill="#1EBBA8" />
  </g>
  <path
    d="M130.545 411.501V412.389H128.265V419.865H127.173V412.389H124.881V411.501H130.545ZM135.153 413.169C135.649 413.169 136.097 413.277 136.497 413.493C136.897 413.701 137.209 414.017 137.433 414.441C137.665 414.865 137.781 415.381 137.781 415.989V419.865H136.701V416.145C136.701 415.489 136.537 414.989 136.209 414.645C135.881 414.293 135.433 414.117 134.865 414.117C134.289 414.117 133.829 414.297 133.485 414.657C133.149 415.017 132.981 415.541 132.981 416.229V419.865H131.889V410.985H132.981V414.225C133.197 413.889 133.493 413.629 133.869 413.445C134.253 413.261 134.681 413.169 135.153 413.169ZM140.129 412.221C139.921 412.221 139.745 412.149 139.601 412.005C139.457 411.861 139.385 411.685 139.385 411.477C139.385 411.269 139.457 411.093 139.601 410.949C139.745 410.805 139.921 410.733 140.129 410.733C140.329 410.733 140.497 410.805 140.633 410.949C140.777 411.093 140.849 411.269 140.849 411.477C140.849 411.685 140.777 411.861 140.633 412.005C140.497 412.149 140.329 412.221 140.129 412.221ZM140.657 413.289V419.865H139.565V413.289H140.657ZM144.846 419.973C144.342 419.973 143.89 419.889 143.49 419.721C143.09 419.545 142.774 419.305 142.542 419.001C142.31 418.689 142.182 418.333 142.158 417.933H143.286C143.318 418.261 143.47 418.529 143.742 418.737C144.022 418.945 144.386 419.049 144.834 419.049C145.25 419.049 145.578 418.957 145.818 418.773C146.058 418.589 146.178 418.357 146.178 418.077C146.178 417.789 146.05 417.577 145.794 417.441C145.538 417.297 145.142 417.157 144.606 417.021C144.118 416.893 143.718 416.765 143.406 416.637C143.102 416.501 142.838 416.305 142.614 416.049C142.398 415.785 142.29 415.441 142.29 415.017C142.29 414.681 142.39 414.373 142.59 414.093C142.79 413.813 143.074 413.593 143.442 413.433C143.81 413.265 144.23 413.181 144.702 413.181C145.43 413.181 146.018 413.365 146.466 413.733C146.914 414.101 147.154 414.605 147.186 415.245H146.094C146.07 414.901 145.93 414.625 145.674 414.417C145.426 414.209 145.09 414.105 144.666 414.105C144.274 414.105 143.962 414.189 143.73 414.357C143.498 414.525 143.382 414.745 143.382 415.017C143.382 415.233 143.45 415.413 143.586 415.557C143.73 415.693 143.906 415.805 144.114 415.893C144.33 415.973 144.626 416.065 145.002 416.169C145.474 416.297 145.858 416.425 146.154 416.553C146.45 416.673 146.702 416.857 146.91 417.105C147.126 417.353 147.238 417.677 147.246 418.077C147.246 418.437 147.146 418.761 146.946 419.049C146.746 419.337 146.462 419.565 146.094 419.733C145.734 419.893 145.318 419.973 144.846 419.973ZM152.551 412.221C152.343 412.221 152.167 412.149 152.023 412.005C151.879 411.861 151.807 411.685 151.807 411.477C151.807 411.269 151.879 411.093 152.023 410.949C152.167 410.805 152.343 410.733 152.551 410.733C152.751 410.733 152.919 410.805 153.055 410.949C153.199 411.093 153.271 411.269 153.271 411.477C153.271 411.685 153.199 411.861 153.055 412.005C152.919 412.149 152.751 412.221 152.551 412.221ZM153.079 413.289V419.865H151.987V413.289H153.079ZM157.268 419.973C156.764 419.973 156.312 419.889 155.912 419.721C155.512 419.545 155.196 419.305 154.964 419.001C154.732 418.689 154.604 418.333 154.58 417.933H155.708C155.74 418.261 155.892 418.529 156.164 418.737C156.444 418.945 156.808 419.049 157.256 419.049C157.672 419.049 158 418.957 158.24 418.773C158.48 418.589 158.6 418.357 158.6 418.077C158.6 417.789 158.472 417.577 158.216 417.441C157.96 417.297 157.564 417.157 157.028 417.021C156.54 416.893 156.14 416.765 155.828 416.637C155.524 416.501 155.26 416.305 155.036 416.049C154.82 415.785 154.712 415.441 154.712 415.017C154.712 414.681 154.812 414.373 155.012 414.093C155.212 413.813 155.496 413.593 155.864 413.433C156.232 413.265 156.652 413.181 157.124 413.181C157.852 413.181 158.44 413.365 158.888 413.733C159.336 414.101 159.576 414.605 159.608 415.245H158.516C158.492 414.901 158.352 414.625 158.096 414.417C157.848 414.209 157.512 414.105 157.088 414.105C156.696 414.105 156.384 414.189 156.152 414.357C155.92 414.525 155.804 414.745 155.804 415.017C155.804 415.233 155.872 415.413 156.008 415.557C156.152 415.693 156.328 415.805 156.536 415.893C156.752 415.973 157.048 416.065 157.424 416.169C157.896 416.297 158.28 416.425 158.576 416.553C158.872 416.673 159.124 416.857 159.332 417.105C159.548 417.353 159.66 417.677 159.668 418.077C159.668 418.437 159.568 418.761 159.368 419.049C159.168 419.337 158.884 419.565 158.516 419.733C158.156 419.893 157.74 419.973 157.268 419.973ZM164 416.553C164 415.881 164.136 415.293 164.408 414.789C164.68 414.277 165.052 413.881 165.524 413.601C166.004 413.321 166.536 413.181 167.12 413.181C167.696 413.181 168.196 413.305 168.62 413.553C169.044 413.801 169.36 414.113 169.568 414.489V413.289H170.672V419.865H169.568V418.641C169.352 419.025 169.028 419.345 168.596 419.601C168.172 419.849 167.676 419.973 167.108 419.973C166.524 419.973 165.996 419.829 165.524 419.541C165.052 419.253 164.68 418.849 164.408 418.329C164.136 417.809 164 417.217 164 416.553ZM169.568 416.565C169.568 416.069 169.468 415.637 169.268 415.269C169.068 414.901 168.796 414.621 168.452 414.429C168.116 414.229 167.744 414.129 167.336 414.129C166.928 414.129 166.556 414.225 166.22 414.417C165.884 414.609 165.616 414.889 165.416 415.257C165.216 415.625 165.116 416.057 165.116 416.553C165.116 417.057 165.216 417.497 165.416 417.873C165.616 418.241 165.884 418.525 166.22 418.725C166.556 418.917 166.928 419.013 167.336 419.013C167.744 419.013 168.116 418.917 168.452 418.725C168.796 418.525 169.068 418.241 169.268 417.873C169.468 417.497 169.568 417.061 169.568 416.565ZM178.045 419.973C177.541 419.973 177.089 419.889 176.689 419.721C176.289 419.545 175.973 419.305 175.741 419.001C175.509 418.689 175.381 418.333 175.357 417.933H176.485C176.517 418.261 176.669 418.529 176.941 418.737C177.221 418.945 177.585 419.049 178.033 419.049C178.449 419.049 178.777 418.957 179.017 418.773C179.257 418.589 179.377 418.357 179.377 418.077C179.377 417.789 179.249 417.577 178.993 417.441C178.737 417.297 178.341 417.157 177.805 417.021C177.317 416.893 176.917 416.765 176.605 416.637C176.301 416.501 176.037 416.305 175.813 416.049C175.597 415.785 175.489 415.441 175.489 415.017C175.489 414.681 175.589 414.373 175.789 414.093C175.989 413.813 176.273 413.593 176.641 413.433C177.009 413.265 177.429 413.181 177.901 413.181C178.629 413.181 179.217 413.365 179.665 413.733C180.113 414.101 180.353 414.605 180.385 415.245H179.293C179.269 414.901 179.129 414.625 178.873 414.417C178.625 414.209 178.289 414.105 177.865 414.105C177.473 414.105 177.161 414.189 176.929 414.357C176.697 414.525 176.581 414.745 176.581 415.017C176.581 415.233 176.649 415.413 176.785 415.557C176.929 415.693 177.105 415.805 177.313 415.893C177.529 415.973 177.825 416.065 178.201 416.169C178.673 416.297 179.057 416.425 179.353 416.553C179.649 416.673 179.901 416.857 180.109 417.105C180.325 417.353 180.437 417.677 180.445 418.077C180.445 418.437 180.345 418.761 180.145 419.049C179.945 419.337 179.661 419.565 179.293 419.733C178.933 419.893 178.517 419.973 178.045 419.973ZM182.551 412.221C182.343 412.221 182.167 412.149 182.023 412.005C181.879 411.861 181.807 411.685 181.807 411.477C181.807 411.269 181.879 411.093 182.023 410.949C182.167 410.805 182.343 410.733 182.551 410.733C182.751 410.733 182.919 410.805 183.055 410.949C183.199 411.093 183.271 411.269 183.271 411.477C183.271 411.685 183.199 411.861 183.055 412.005C182.919 412.149 182.751 412.221 182.551 412.221ZM183.079 413.289V419.865H181.987V413.289H183.079ZM192.848 413.169C193.36 413.169 193.816 413.277 194.216 413.493C194.616 413.701 194.932 414.017 195.164 414.441C195.396 414.865 195.512 415.381 195.512 415.989V419.865H194.432V416.145C194.432 415.489 194.268 414.989 193.94 414.645C193.62 414.293 193.184 414.117 192.632 414.117C192.064 414.117 191.612 414.301 191.276 414.669C190.94 415.029 190.772 415.553 190.772 416.241V419.865H189.692V416.145C189.692 415.489 189.528 414.989 189.2 414.645C188.88 414.293 188.444 414.117 187.892 414.117C187.324 414.117 186.872 414.301 186.536 414.669C186.2 415.029 186.032 415.553 186.032 416.241V419.865H184.94V413.289H186.032V414.237C186.248 413.893 186.536 413.629 186.896 413.445C187.264 413.261 187.668 413.169 188.108 413.169C188.66 413.169 189.148 413.293 189.572 413.541C189.996 413.789 190.312 414.153 190.52 414.633C190.704 414.169 191.008 413.809 191.432 413.553C191.856 413.297 192.328 413.169 192.848 413.169ZM203.135 413.289V419.865H202.043V418.893C201.835 419.229 201.543 419.493 201.167 419.685C200.799 419.869 200.391 419.961 199.943 419.961C199.431 419.961 198.971 419.857 198.563 419.649C198.155 419.433 197.831 419.113 197.591 418.689C197.359 418.265 197.243 417.749 197.243 417.141V413.289H198.323V416.997C198.323 417.645 198.487 418.145 198.815 418.497C199.143 418.841 199.591 419.013 200.159 419.013C200.743 419.013 201.203 418.833 201.539 418.473C201.875 418.113 202.043 417.589 202.043 416.901V413.289H203.135ZM206.071 410.985V419.865H204.979V410.985H206.071ZM207.524 416.553C207.524 415.881 207.66 415.293 207.932 414.789C208.204 414.277 208.576 413.881 209.048 413.601C209.528 413.321 210.06 413.181 210.644 413.181C211.22 413.181 211.72 413.305 212.144 413.553C212.568 413.801 212.884 414.113 213.092 414.489V413.289H214.196V419.865H213.092V418.641C212.876 419.025 212.552 419.345 212.12 419.601C211.696 419.849 211.2 419.973 210.632 419.973C210.048 419.973 209.52 419.829 209.048 419.541C208.576 419.253 208.204 418.849 207.932 418.329C207.66 417.809 207.524 417.217 207.524 416.553ZM213.092 416.565C213.092 416.069 212.992 415.637 212.792 415.269C212.592 414.901 212.32 414.621 211.976 414.429C211.64 414.229 211.268 414.129 210.86 414.129C210.452 414.129 210.08 414.225 209.744 414.417C209.408 414.609 209.14 414.889 208.94 415.257C208.74 415.625 208.64 416.057 208.64 416.553C208.64 417.057 208.74 417.497 208.94 417.873C209.14 418.241 209.408 418.525 209.744 418.725C210.08 418.917 210.452 419.013 210.86 419.013C211.268 419.013 211.64 418.917 211.976 418.725C212.32 418.525 212.592 418.241 212.792 417.873C212.992 417.497 213.092 417.061 213.092 416.565ZM217.373 414.189V418.065C217.373 418.385 217.441 418.613 217.577 418.749C217.713 418.877 217.949 418.941 218.285 418.941H219.089V419.865H218.105C217.497 419.865 217.041 419.725 216.737 419.445C216.433 419.165 216.281 418.705 216.281 418.065V414.189H215.429V413.289H216.281V411.633H217.373V413.289H219.089V414.189H217.373ZM220.976 412.221C220.768 412.221 220.592 412.149 220.448 412.005C220.304 411.861 220.232 411.685 220.232 411.477C220.232 411.269 220.304 411.093 220.448 410.949C220.592 410.805 220.768 410.733 220.976 410.733C221.176 410.733 221.344 410.805 221.48 410.949C221.624 411.093 221.696 411.269 221.696 411.477C221.696 411.685 221.624 411.861 221.48 412.005C221.344 412.149 221.176 412.221 220.976 412.221ZM221.504 413.289V419.865H220.412V413.289H221.504ZM226.233 419.973C225.617 419.973 225.057 419.833 224.553 419.553C224.057 419.273 223.665 418.877 223.377 418.365C223.097 417.845 222.957 417.245 222.957 416.565C222.957 415.893 223.101 415.301 223.389 414.789C223.685 414.269 224.085 413.873 224.589 413.601C225.093 413.321 225.657 413.181 226.281 413.181C226.905 413.181 227.469 413.321 227.973 413.601C228.477 413.873 228.873 414.265 229.161 414.777C229.457 415.289 229.605 415.885 229.605 416.565C229.605 417.245 229.453 417.845 229.149 418.365C228.853 418.877 228.449 419.273 227.937 419.553C227.425 419.833 226.857 419.973 226.233 419.973ZM226.233 419.013C226.625 419.013 226.993 418.921 227.337 418.737C227.681 418.553 227.957 418.277 228.165 417.909C228.381 417.541 228.489 417.093 228.489 416.565C228.489 416.037 228.385 415.589 228.177 415.221C227.969 414.853 227.697 414.581 227.361 414.405C227.025 414.221 226.661 414.129 226.269 414.129C225.869 414.129 225.501 414.221 225.165 414.405C224.837 414.581 224.573 414.853 224.373 415.221C224.173 415.589 224.073 416.037 224.073 416.565C224.073 417.101 224.169 417.553 224.361 417.921C224.561 418.289 224.825 418.565 225.153 418.749C225.481 418.925 225.841 419.013 226.233 419.013ZM234.245 413.169C235.045 413.169 235.693 413.413 236.189 413.901C236.685 414.381 236.933 415.077 236.933 415.989V419.865H235.853V416.145C235.853 415.489 235.689 414.989 235.361 414.645C235.033 414.293 234.585 414.117 234.017 414.117C233.441 414.117 232.981 414.297 232.637 414.657C232.301 415.017 232.133 415.541 232.133 416.229V419.865H231.041V413.289H232.133V414.225C232.349 413.889 232.641 413.629 233.009 413.445C233.385 413.261 233.797 413.169 234.245 413.169ZM239.065 419.937C238.857 419.937 238.681 419.865 238.537 419.721C238.393 419.577 238.321 419.401 238.321 419.193C238.321 418.985 238.393 418.809 238.537 418.665C238.681 418.521 238.857 418.449 239.065 418.449C239.265 418.449 239.433 418.521 239.569 418.665C239.713 418.809 239.785 418.985 239.785 419.193C239.785 419.401 239.713 419.577 239.569 419.721C239.433 419.865 239.265 419.937 239.065 419.937ZM251.012 419.865H249.92L245.528 413.205V419.865H244.436V411.489H245.528L249.92 418.137V411.489H251.012V419.865ZM255.741 419.973C255.125 419.973 254.565 419.833 254.061 419.553C253.565 419.273 253.173 418.877 252.885 418.365C252.605 417.845 252.465 417.245 252.465 416.565C252.465 415.893 252.609 415.301 252.897 414.789C253.193 414.269 253.593 413.873 254.097 413.601C254.601 413.321 255.165 413.181 255.789 413.181C256.413 413.181 256.977 413.321 257.481 413.601C257.985 413.873 258.381 414.265 258.669 414.777C258.965 415.289 259.113 415.885 259.113 416.565C259.113 417.245 258.961 417.845 258.657 418.365C258.361 418.877 257.957 419.273 257.445 419.553C256.933 419.833 256.365 419.973 255.741 419.973ZM255.741 419.013C256.133 419.013 256.501 418.921 256.845 418.737C257.189 418.553 257.465 418.277 257.673 417.909C257.889 417.541 257.997 417.093 257.997 416.565C257.997 416.037 257.893 415.589 257.685 415.221C257.477 414.853 257.205 414.581 256.869 414.405C256.533 414.221 256.169 414.129 255.777 414.129C255.377 414.129 255.009 414.221 254.673 414.405C254.345 414.581 254.081 414.853 253.881 415.221C253.681 415.589 253.581 416.037 253.581 416.565C253.581 417.101 253.677 417.553 253.869 417.921C254.069 418.289 254.333 418.565 254.661 418.749C254.989 418.925 255.349 419.013 255.741 419.013ZM263.34 416.553C263.34 415.881 263.476 415.293 263.748 414.789C264.02 414.277 264.392 413.881 264.864 413.601C265.344 413.321 265.88 413.181 266.472 413.181C266.984 413.181 267.46 413.301 267.9 413.541C268.34 413.773 268.676 414.081 268.908 414.465V410.985H270.012V419.865H268.908V418.629C268.692 419.021 268.372 419.345 267.948 419.601C267.524 419.849 267.028 419.973 266.46 419.973C265.876 419.973 265.344 419.829 264.864 419.541C264.392 419.253 264.02 418.849 263.748 418.329C263.476 417.809 263.34 417.217 263.34 416.553ZM268.908 416.565C268.908 416.069 268.808 415.637 268.608 415.269C268.408 414.901 268.136 414.621 267.792 414.429C267.456 414.229 267.084 414.129 266.676 414.129C266.268 414.129 265.896 414.225 265.56 414.417C265.224 414.609 264.956 414.889 264.756 415.257C264.556 415.625 264.456 416.057 264.456 416.553C264.456 417.057 264.556 417.497 264.756 417.873C264.956 418.241 265.224 418.525 265.56 418.725C265.896 418.917 266.268 419.013 266.676 419.013C267.084 419.013 267.456 418.917 267.792 418.725C268.136 418.525 268.408 418.241 268.608 417.873C268.808 417.497 268.908 417.061 268.908 416.565ZM271.45 416.553C271.45 415.881 271.586 415.293 271.858 414.789C272.13 414.277 272.502 413.881 272.974 413.601C273.454 413.321 273.986 413.181 274.57 413.181C275.146 413.181 275.646 413.305 276.07 413.553C276.494 413.801 276.81 414.113 277.018 414.489V413.289H278.122V419.865H277.018V418.641C276.802 419.025 276.478 419.345 276.046 419.601C275.622 419.849 275.126 419.973 274.558 419.973C273.974 419.973 273.446 419.829 272.974 419.541C272.502 419.253 272.13 418.849 271.858 418.329C271.586 417.809 271.45 417.217 271.45 416.553ZM277.018 416.565C277.018 416.069 276.918 415.637 276.718 415.269C276.518 414.901 276.246 414.621 275.902 414.429C275.566 414.229 275.194 414.129 274.786 414.129C274.378 414.129 274.006 414.225 273.67 414.417C273.334 414.609 273.066 414.889 272.866 415.257C272.666 415.625 272.566 416.057 272.566 416.553C272.566 417.057 272.666 417.497 272.866 417.873C273.066 418.241 273.334 418.525 273.67 418.725C274.006 418.917 274.378 419.013 274.786 419.013C275.194 419.013 275.566 418.917 275.902 418.725C276.246 418.525 276.518 418.241 276.718 417.873C276.918 417.497 277.018 417.061 277.018 416.565ZM281.299 414.189V418.065C281.299 418.385 281.367 418.613 281.503 418.749C281.639 418.877 281.875 418.941 282.211 418.941H283.015V419.865H282.031C281.423 419.865 280.967 419.725 280.663 419.445C280.359 419.165 280.207 418.705 280.207 418.065V414.189H279.355V413.289H280.207V411.633H281.299V413.289H283.015V414.189H281.299ZM283.93 416.553C283.93 415.881 284.066 415.293 284.338 414.789C284.61 414.277 284.982 413.881 285.454 413.601C285.934 413.321 286.466 413.181 287.05 413.181C287.626 413.181 288.126 413.305 288.55 413.553C288.974 413.801 289.29 414.113 289.498 414.489V413.289H290.602V419.865H289.498V418.641C289.282 419.025 288.958 419.345 288.526 419.601C288.102 419.849 287.606 419.973 287.038 419.973C286.454 419.973 285.926 419.829 285.454 419.541C284.982 419.253 284.61 418.849 284.338 418.329C284.066 417.809 283.93 417.217 283.93 416.553ZM289.498 416.565C289.498 416.069 289.398 415.637 289.198 415.269C288.998 414.901 288.726 414.621 288.382 414.429C288.046 414.229 287.674 414.129 287.266 414.129C286.858 414.129 286.486 414.225 286.15 414.417C285.814 414.609 285.546 414.889 285.346 415.257C285.146 415.625 285.046 416.057 285.046 416.553C285.046 417.057 285.146 417.497 285.346 417.873C285.546 418.241 285.814 418.525 286.15 418.725C286.486 418.917 286.858 419.013 287.266 419.013C287.674 419.013 288.046 418.917 288.382 418.725C288.726 418.525 288.998 418.241 289.198 417.873C289.398 417.497 289.498 417.061 289.498 416.565ZM296.211 412.221C296.003 412.221 295.827 412.149 295.683 412.005C295.539 411.861 295.467 411.685 295.467 411.477C295.467 411.269 295.539 411.093 295.683 410.949C295.827 410.805 296.003 410.733 296.211 410.733C296.411 410.733 296.579 410.805 296.715 410.949C296.859 411.093 296.931 411.269 296.931 411.477C296.931 411.685 296.859 411.861 296.715 412.005C296.579 412.149 296.411 412.221 296.211 412.221ZM296.739 413.289V419.865H295.647V413.289H296.739ZM300.928 419.973C300.424 419.973 299.972 419.889 299.572 419.721C299.172 419.545 298.856 419.305 298.624 419.001C298.392 418.689 298.264 418.333 298.24 417.933H299.368C299.4 418.261 299.552 418.529 299.824 418.737C300.104 418.945 300.468 419.049 300.916 419.049C301.332 419.049 301.66 418.957 301.9 418.773C302.14 418.589 302.26 418.357 302.26 418.077C302.26 417.789 302.132 417.577 301.876 417.441C301.62 417.297 301.224 417.157 300.688 417.021C300.2 416.893 299.8 416.765 299.488 416.637C299.184 416.501 298.92 416.305 298.696 416.049C298.48 415.785 298.372 415.441 298.372 415.017C298.372 414.681 298.472 414.373 298.672 414.093C298.872 413.813 299.156 413.593 299.524 413.433C299.892 413.265 300.312 413.181 300.784 413.181C301.512 413.181 302.1 413.365 302.548 413.733C302.996 414.101 303.236 414.605 303.268 415.245H302.176C302.152 414.901 302.012 414.625 301.756 414.417C301.508 414.209 301.172 414.105 300.748 414.105C300.356 414.105 300.044 414.189 299.812 414.357C299.58 414.525 299.464 414.745 299.464 415.017C299.464 415.233 299.532 415.413 299.668 415.557C299.812 415.693 299.988 415.805 300.196 415.893C300.412 415.973 300.708 416.065 301.084 416.169C301.556 416.297 301.94 416.425 302.236 416.553C302.532 416.673 302.784 416.857 302.992 417.105C303.208 417.353 303.32 417.677 303.328 418.077C303.328 418.437 303.228 418.761 303.028 419.049C302.828 419.337 302.544 419.565 302.176 419.733C301.816 419.893 301.4 419.973 300.928 419.973ZM310.397 419.973C309.893 419.973 309.441 419.889 309.041 419.721C308.641 419.545 308.325 419.305 308.093 419.001C307.861 418.689 307.733 418.333 307.709 417.933H308.837C308.869 418.261 309.021 418.529 309.293 418.737C309.573 418.945 309.937 419.049 310.385 419.049C310.801 419.049 311.129 418.957 311.369 418.773C311.609 418.589 311.729 418.357 311.729 418.077C311.729 417.789 311.601 417.577 311.345 417.441C311.089 417.297 310.693 417.157 310.157 417.021C309.669 416.893 309.269 416.765 308.957 416.637C308.653 416.501 308.389 416.305 308.165 416.049C307.949 415.785 307.841 415.441 307.841 415.017C307.841 414.681 307.941 414.373 308.141 414.093C308.341 413.813 308.625 413.593 308.993 413.433C309.361 413.265 309.781 413.181 310.253 413.181C310.981 413.181 311.569 413.365 312.017 413.733C312.465 414.101 312.705 414.605 312.737 415.245H311.645C311.621 414.901 311.481 414.625 311.225 414.417C310.977 414.209 310.641 414.105 310.217 414.105C309.825 414.105 309.513 414.189 309.281 414.357C309.049 414.525 308.933 414.745 308.933 415.017C308.933 415.233 309.001 415.413 309.137 415.557C309.281 415.693 309.457 415.805 309.665 415.893C309.881 415.973 310.177 416.065 310.553 416.169C311.025 416.297 311.409 416.425 311.705 416.553C312.001 416.673 312.253 416.857 312.461 417.105C312.677 417.353 312.789 417.677 312.797 418.077C312.797 418.437 312.697 418.761 312.497 419.049C312.297 419.337 312.013 419.565 311.645 419.733C311.285 419.893 310.869 419.973 310.397 419.973ZM320.338 416.325C320.338 416.533 320.326 416.753 320.302 416.985H315.046C315.086 417.633 315.306 418.141 315.706 418.509C316.114 418.869 316.606 419.049 317.182 419.049C317.654 419.049 318.046 418.941 318.358 418.725C318.678 418.501 318.902 418.205 319.03 417.837H320.206C320.03 418.469 319.678 418.985 319.15 419.385C318.622 419.777 317.966 419.973 317.182 419.973C316.558 419.973 315.998 419.833 315.502 419.553C315.014 419.273 314.63 418.877 314.35 418.365C314.07 417.845 313.93 417.245 313.93 416.565C313.93 415.885 314.066 415.289 314.338 414.777C314.61 414.265 314.99 413.873 315.478 413.601C315.974 413.321 316.542 413.181 317.182 413.181C317.806 413.181 318.358 413.317 318.838 413.589C319.318 413.861 319.686 414.237 319.942 414.717C320.206 415.189 320.338 415.725 320.338 416.325ZM319.21 416.097C319.21 415.681 319.118 415.325 318.934 415.029C318.75 414.725 318.498 414.497 318.178 414.345C317.866 414.185 317.518 414.105 317.134 414.105C316.582 414.105 316.11 414.281 315.718 414.633C315.334 414.985 315.114 415.473 315.058 416.097H319.21ZM324.983 413.169C325.783 413.169 326.431 413.413 326.927 413.901C327.423 414.381 327.671 415.077 327.671 415.989V419.865H326.591V416.145C326.591 415.489 326.427 414.989 326.099 414.645C325.771 414.293 325.323 414.117 324.755 414.117C324.179 414.117 323.719 414.297 323.375 414.657C323.039 415.017 322.871 415.541 322.871 416.229V419.865H321.779V413.289H322.871V414.225C323.087 413.889 323.379 413.629 323.747 413.445C324.123 413.261 324.535 413.169 324.983 413.169ZM330.787 414.189V418.065C330.787 418.385 330.855 418.613 330.991 418.749C331.127 418.877 331.363 418.941 331.699 418.941H332.503V419.865H331.519C330.911 419.865 330.455 419.725 330.151 419.445C329.847 419.165 329.695 418.705 329.695 418.065V414.189H328.843V413.289H329.695V411.633H330.787V413.289H332.503V414.189H330.787ZM336.618 416.553C336.618 415.881 336.754 415.293 337.026 414.789C337.298 414.277 337.67 413.881 338.142 413.601C338.622 413.321 339.154 413.181 339.738 413.181C340.314 413.181 340.814 413.305 341.238 413.553C341.662 413.801 341.978 414.113 342.186 414.489V413.289H343.29V419.865H342.186V418.641C341.97 419.025 341.646 419.345 341.214 419.601C340.79 419.849 340.294 419.973 339.726 419.973C339.142 419.973 338.614 419.829 338.142 419.541C337.67 419.253 337.298 418.849 337.026 418.329C336.754 417.809 336.618 417.217 336.618 416.553ZM342.186 416.565C342.186 416.069 342.086 415.637 341.886 415.269C341.686 414.901 341.414 414.621 341.07 414.429C340.734 414.229 340.362 414.129 339.954 414.129C339.546 414.129 339.174 414.225 338.838 414.417C338.502 414.609 338.234 414.889 338.034 415.257C337.834 415.625 337.734 416.057 337.734 416.553C337.734 417.057 337.834 417.497 338.034 417.873C338.234 418.241 338.502 418.525 338.838 418.725C339.174 418.917 339.546 419.013 339.954 419.013C340.362 419.013 340.734 418.917 341.07 418.725C341.414 418.525 341.686 418.241 341.886 417.873C342.086 417.497 342.186 417.061 342.186 416.565ZM348.339 413.169C349.139 413.169 349.787 413.413 350.283 413.901C350.779 414.381 351.027 415.077 351.027 415.989V419.865H349.947V416.145C349.947 415.489 349.783 414.989 349.455 414.645C349.127 414.293 348.679 414.117 348.111 414.117C347.535 414.117 347.075 414.297 346.731 414.657C346.395 415.017 346.227 415.541 346.227 416.229V419.865H345.135V413.289H346.227V414.225C346.443 413.889 346.735 413.629 347.103 413.445C347.479 413.261 347.891 413.169 348.339 413.169ZM358.475 413.289L354.515 422.961H353.387L354.683 419.793L352.031 413.289H353.243L355.307 418.617L357.347 413.289H358.475ZM368.332 413.289L366.28 419.865H365.152L363.568 414.645L361.984 419.865H360.856L358.792 413.289H359.908L361.42 418.809L363.052 413.289H364.168L365.764 418.821L367.252 413.289H368.332ZM372.68 413.169C373.176 413.169 373.624 413.277 374.024 413.493C374.424 413.701 374.736 414.017 374.96 414.441C375.192 414.865 375.308 415.381 375.308 415.989V419.865H374.228V416.145C374.228 415.489 374.064 414.989 373.736 414.645C373.408 414.293 372.96 414.117 372.392 414.117C371.816 414.117 371.356 414.297 371.012 414.657C370.676 415.017 370.508 415.541 370.508 416.229V419.865H369.416V410.985H370.508V414.225C370.724 413.889 371.02 413.629 371.396 413.445C371.78 413.261 372.208 413.169 372.68 413.169ZM383.092 416.325C383.092 416.533 383.08 416.753 383.056 416.985H377.8C377.84 417.633 378.06 418.141 378.46 418.509C378.868 418.869 379.36 419.049 379.936 419.049C380.408 419.049 380.8 418.941 381.112 418.725C381.432 418.501 381.656 418.205 381.784 417.837H382.96C382.784 418.469 382.432 418.985 381.904 419.385C381.376 419.777 380.72 419.973 379.936 419.973C379.312 419.973 378.752 419.833 378.256 419.553C377.768 419.273 377.384 418.877 377.104 418.365C376.824 417.845 376.684 417.245 376.684 416.565C376.684 415.885 376.82 415.289 377.092 414.777C377.364 414.265 377.744 413.873 378.232 413.601C378.728 413.321 379.296 413.181 379.936 413.181C380.56 413.181 381.112 413.317 381.592 413.589C382.072 413.861 382.44 414.237 382.696 414.717C382.96 415.189 383.092 415.725 383.092 416.325ZM381.964 416.097C381.964 415.681 381.872 415.325 381.688 415.029C381.504 414.725 381.252 414.497 380.932 414.345C380.62 414.185 380.272 414.105 379.888 414.105C379.336 414.105 378.864 414.281 378.472 414.633C378.088 414.985 377.868 415.473 377.812 416.097H381.964ZM385.625 414.357C385.817 413.981 386.089 413.689 386.441 413.481C386.801 413.273 387.237 413.169 387.749 413.169V414.297H387.461C386.237 414.297 385.625 414.961 385.625 416.289V419.865H384.533V413.289H385.625V414.357ZM395.01 416.325C395.01 416.533 394.998 416.753 394.974 416.985H389.718C389.758 417.633 389.978 418.141 390.378 418.509C390.786 418.869 391.278 419.049 391.854 419.049C392.326 419.049 392.718 418.941 393.03 418.725C393.35 418.501 393.574 418.205 393.702 417.837H394.878C394.702 418.469 394.35 418.985 393.822 419.385C393.294 419.777 392.638 419.973 391.854 419.973C391.23 419.973 390.67 419.833 390.174 419.553C389.686 419.273 389.302 418.877 389.022 418.365C388.742 417.845 388.602 417.245 388.602 416.565C388.602 415.885 388.738 415.289 389.01 414.777C389.282 414.265 389.662 413.873 390.15 413.601C390.646 413.321 391.214 413.181 391.854 413.181C392.478 413.181 393.03 413.317 393.51 413.589C393.99 413.861 394.358 414.237 394.614 414.717C394.878 415.189 395.01 415.725 395.01 416.325ZM393.882 416.097C393.882 415.681 393.79 415.325 393.606 415.029C393.422 414.725 393.17 414.497 392.85 414.345C392.538 414.185 392.19 414.105 391.806 414.105C391.254 414.105 390.782 414.281 390.39 414.633C390.006 414.985 389.786 415.473 389.73 416.097H393.882Z"
    fill="#ABABAB" />
  <defs>
    <clipPath id="clip0_234_504">
      <rect width="64" height="54.8571" fill="white" transform="translate(228 221.865)" />
    </clipPath>
  </defs>
</svg>
  