<svg width="24" height="20" viewBox="0 0 24 20" fill="none" xmlns="http://www.w3.org/2000/svg">
  <g clip-path="url(#clip0_56_102)">
    <path
      d="M6.54545 15.2727C5.94545 15.2727 5.432 15.0593 5.00509 14.6324C4.57818 14.2055 4.36436 13.6916 4.36364 13.0909V2.18182C4.36364 1.58182 4.57745 1.06836 5.00509 0.641455C5.43273 0.214545 5.94618 0.000727273 6.54545 0H21.8182C22.4182 0 22.932 0.213818 23.3596 0.641455C23.7873 1.06909 24.0007 1.58255 24 2.18182V13.0909C24 13.6909 23.7865 14.2047 23.3596 14.6324C22.9327 15.06 22.4189 15.2735 21.8182 15.2727H6.54545ZM13.5545 9.70909L6.54545 4.82727V13.0909H21.8182V4.82727L14.8091 9.70909C14.6091 9.85454 14.4 9.92727 14.1818 9.92727C13.9636 9.92727 13.7545 9.85454 13.5545 9.70909ZM14.1818 7.47273L21.8182 2.18182H6.54545L14.1818 7.47273ZM2.18182 19.6364C1.58182 19.6364 1.06836 19.4229 0.641455 18.996C0.214545 18.5691 0.000727273 18.0553 0 17.4545V4.90909C0 4.6 0.104727 4.34109 0.314182 4.13236C0.523636 3.92364 0.782545 3.81891 1.09091 3.81818C1.39927 3.81745 1.65855 3.92218 1.86873 4.13236C2.07891 4.34255 2.18327 4.60145 2.18182 4.90909V17.4545H19.0909C19.4 17.4545 19.6593 17.5593 19.8687 17.7687C20.0782 17.9782 20.1825 18.2371 20.1818 18.5455C20.1811 18.8538 20.0764 19.1131 19.8676 19.3233C19.6589 19.5335 19.4 19.6378 19.0909 19.6364H2.18182Z"
      fill="#083358" />
  </g>
  <defs>
    <clipPath id="clip0_56_102">
      <rect width="24" height="19.6364" fill="white" />
    </clipPath>
  </defs>
</svg>