<svg width="293" height="87" viewBox="0 0 293 87" fill="none" xmlns="http://www.w3.org/2000/svg">
  <path
    d="M25.3013 5.96046e-08L75.3013 0L100.301 43.3013L75.3013 86.6025H25.3013L0.30127 43.3013L25.3013 5.96046e-08Z"
    fill="#0D63A5" />
  <path
    d="M33.8027 43.104C33.8027 39.776 34.5228 36.816 35.9628 34.224C37.4028 31.6 39.4028 29.568 41.9628 28.128C44.5548 26.656 47.4828 25.92 50.7468 25.92C54.7468 25.92 58.1708 26.976 61.0188 29.088C63.8668 31.2 65.7708 34.08 66.7308 37.728H57.7068C57.0348 36.32 56.0748 35.248 54.8268 34.512C53.6108 33.776 52.2188 33.408 50.6508 33.408C48.1228 33.408 46.0748 34.288 44.5068 36.048C42.9388 37.808 42.1548 40.16 42.1548 43.104C42.1548 46.048 42.9388 48.4 44.5068 50.16C46.0748 51.92 48.1228 52.8 50.6508 52.8C52.2188 52.8 53.6108 52.432 54.8268 51.696C56.0748 50.96 57.0348 49.888 57.7068 48.48H66.7308C65.7708 52.128 63.8668 55.008 61.0188 57.12C58.1708 59.2 54.7468 60.24 50.7468 60.24C47.4828 60.24 44.5548 59.52 41.9628 58.08C39.4028 56.608 37.4028 54.576 35.9628 51.984C34.5228 49.392 33.8027 46.432 33.8027 43.104Z"
    fill="white" />
</svg>
  