<svg width="491" height="216" viewBox="0 0 491 216" fill="none" xmlns="http://www.w3.org/2000/svg">
  <path
    d="M68.2706 39.4161L147.103 39.4161L186.519 107.687L147.103 175.957L68.2706 175.957L28.8546 107.687L68.2706 39.4161Z"
    fill="#0D63A5" />
  <path
    d="M81.5066 106.814C81.5066 101.566 82.6417 96.8996 84.9121 92.813C87.1825 88.6759 90.3358 85.4721 94.372 83.2018C98.4586 80.8809 103.075 79.7205 108.221 79.7205C114.528 79.7205 119.926 81.3855 124.416 84.7153C128.907 88.0452 131.909 92.5859 133.422 98.3375H119.195C118.135 96.1176 116.622 94.4275 114.654 93.2671C112.737 92.1066 110.542 91.5264 108.07 91.5264C104.084 91.5264 100.855 92.9139 98.3829 95.6888C95.9108 98.4637 94.6747 102.172 94.6747 106.814C94.6747 111.455 95.9108 115.163 98.3829 117.938C100.855 120.713 104.084 122.101 108.07 122.101C110.542 122.101 112.737 121.52 114.654 120.36C116.622 119.2 118.135 117.51 119.195 115.29H133.422C131.909 121.041 128.907 125.582 124.416 128.912C119.926 132.191 114.528 133.831 108.221 133.831C103.075 133.831 98.4586 132.696 94.372 130.425C90.3358 128.105 87.1825 124.901 84.9121 120.814C82.6417 116.727 81.5066 112.061 81.5066 106.814Z"
    fill="white" />
  <path
    d="M167.128 133.982C162.133 133.982 157.542 132.822 153.355 130.501C149.217 128.18 145.913 124.951 143.441 120.814C141.019 116.627 139.808 111.934 139.808 106.738C139.808 101.541 141.019 96.8744 143.441 92.7373C145.913 88.6002 149.217 85.3712 153.355 83.0504C157.542 80.7296 162.133 79.5692 167.128 79.5692C172.123 79.5692 176.689 80.7296 180.826 83.0504C185.014 85.3712 188.293 88.6002 190.664 92.7373C193.086 96.8744 194.297 101.541 194.297 106.738C194.297 111.934 193.086 116.627 190.664 120.814C188.242 124.951 184.963 128.18 180.826 130.501C176.689 132.822 172.123 133.982 167.128 133.982ZM167.128 122.176C171.366 122.176 174.746 120.764 177.269 117.938C179.842 115.113 181.129 111.38 181.129 106.738C181.129 102.046 179.842 98.3123 177.269 95.5374C174.746 92.7121 171.366 91.2994 167.128 91.2994C162.84 91.2994 159.409 92.6868 156.836 95.4617C154.313 98.2366 153.052 101.995 153.052 106.738C153.052 111.43 154.313 115.189 156.836 118.014C159.409 120.789 162.84 122.176 167.128 122.176ZM221.4 80.326C227 80.326 231.894 81.4359 236.082 83.6558C240.269 85.8758 243.498 89.0038 245.768 93.04C248.089 97.0258 249.25 101.642 249.25 106.889C249.25 112.086 248.089 116.702 245.768 120.738C243.498 124.775 240.244 127.903 236.006 130.123C231.818 132.343 226.95 133.453 221.4 133.453H201.496V80.326H221.4ZM220.567 122.252C225.461 122.252 229.27 120.915 231.995 118.241C234.719 115.567 236.082 111.783 236.082 106.889C236.082 101.995 234.719 98.1862 231.995 95.4617C229.27 92.7373 225.461 91.3751 220.567 91.3751H214.437V122.252H220.567ZM269.423 90.694V101.44H286.753V111.43H269.423V123.085H289.024V133.453H256.482V80.326H289.024V90.694H269.423Z"
    fill="white" />
  <path
    d="M345.626 106.208C348.704 106.864 351.176 108.403 353.043 110.825C354.909 113.196 355.843 115.92 355.843 118.998C355.843 123.438 354.279 126.969 351.151 129.593C348.073 132.166 343.759 133.453 338.21 133.453H313.463V80.326H337.377C342.776 80.326 346.988 81.5621 350.015 84.0342C353.093 86.5064 354.632 89.8615 354.632 94.0995C354.632 97.2276 353.799 99.8259 352.134 101.894C350.52 103.963 348.351 105.401 345.626 106.208ZM326.404 101.819H334.88C336.999 101.819 338.613 101.365 339.723 100.457C340.884 99.4979 341.464 98.1105 341.464 96.2942C341.464 94.4779 340.884 93.0905 339.723 92.1319C338.613 91.1733 336.999 90.694 334.88 90.694H326.404V101.819ZM335.939 123.009C338.109 123.009 339.774 122.53 340.934 121.571C342.145 120.562 342.75 119.124 342.75 117.257C342.75 115.39 342.12 113.927 340.858 112.868C339.647 111.808 337.957 111.279 335.788 111.279H326.404V123.009H335.939ZM376.29 123.463H393.242V133.453H363.349V80.326H376.29V123.463ZM412.128 80.326V112.111C412.128 115.29 412.91 117.737 414.474 119.452C416.038 121.167 418.334 122.025 421.361 122.025C424.388 122.025 426.709 121.167 428.324 119.452C429.938 117.737 430.745 115.29 430.745 112.111V80.326H443.686V112.035C443.686 116.778 442.677 120.789 440.659 124.068C438.641 127.348 435.917 129.82 432.486 131.485C429.106 133.15 425.322 133.982 421.134 133.982C416.946 133.982 413.188 133.175 409.858 131.561C406.578 129.896 403.98 127.423 402.063 124.144C400.146 120.814 399.187 116.778 399.187 112.035V80.326H412.128ZM465.715 90.694V101.44H483.045V111.43H465.715V123.085H485.316V133.453H452.774V80.326H485.316V90.694H465.715Z"
    fill="#0D63A5" />
</svg>