<svg width="32" height="32" viewBox="0 0 32 32" fill="none" xmlns="http://www.w3.org/2000/svg">
  <g clip-path="url(#clip0_240_621)">
    <path
      d="M30.5455 16C30.5455 17.9102 30.1692 19.8018 29.4382 21.5666C28.7072 23.3314 27.6357 24.935 26.285 26.2857C24.9342 27.6364 23.3307 28.7079 21.5659 29.4389C19.801 30.1699 17.9095 30.5462 15.9993 30.5462C14.089 30.5462 12.1975 30.1699 10.4327 29.4389C8.66787 28.7079 7.06431 27.6364 5.71357 26.2857C4.36283 24.935 3.29137 23.3314 2.56035 21.5666C1.82934 19.8018 1.45309 17.9102 1.45309 16C1.45309 12.1421 2.98563 8.44224 5.71357 5.7143C8.44151 2.98637 12.1414 1.45383 15.9993 1.45383C19.8572 1.45383 23.557 2.98637 26.285 5.7143C29.0129 8.44224 30.5455 12.1421 30.5455 16Z"
      stroke="#0D63A5" stroke-width="2.18182" />
    <path
      d="M21.8182 16C21.8182 17.9098 21.6669 19.8022 21.3745 21.5666C21.0836 23.3309 20.6545 24.9338 20.1135 26.2851C19.5738 27.6364 18.9324 28.7069 18.2269 29.4386C17.52 30.1687 16.7636 30.5455 16 30.5455C15.2364 30.5455 14.48 30.1687 13.7745 29.4386C13.0676 28.7069 12.4262 27.6349 11.8865 26.2851C11.3455 24.9338 10.9164 23.3324 10.624 21.5666C10.3257 19.7261 10.1778 17.8645 10.1818 16C10.1818 14.0902 10.3316 12.1978 10.624 10.4335C10.9164 8.66911 11.3455 7.0662 11.8865 5.71492C12.4262 4.36365 13.0676 3.2931 13.7731 2.56147C14.48 1.83274 15.2364 1.45456 16 1.45456C16.7636 1.45456 17.52 1.83129 18.2255 2.56147C18.9324 3.2931 19.5738 4.3651 20.1135 5.71492C20.6545 7.0662 21.0836 8.66765 21.3745 10.4335C21.6684 12.1978 21.8182 14.0902 21.8182 16Z"
      stroke="#0D63A5" stroke-width="2.18182" />
    <path d="M1.45454 16H30.5455" stroke="#0D63A5" stroke-width="2.18182" stroke-linecap="round" />
  </g>
  <defs>
    <clipPath id="clip0_240_621">
      <rect width="32" height="32" fill="white" />
    </clipPath>
  </defs>
</svg>